<?xml version="1.0" encoding="utf-8"?>
<!-- Generator: Adobe Illustrator 19.2.1, SVG Export Plug-In . SVG Version: 6.00 Build 0)  -->
<svg version="1.1" id="Layer_1" xmlns="http://www.w3.org/2000/svg" xmlns:xlink="http://www.w3.org/1999/xlink" x="0px" y="0px"
	 viewBox="0 0 283.5 412.2" style="enable-background:new 0 0 283.5 412.2;" xml:space="preserve">
<style type="text/css">
	.st0{fill:none;}
	.st1{fill:#F6B867;}
	.st2{fill:#FFFFFF;}
	.st3{fill:#1E191D;}
</style>
<pattern  x="-158.9" y="628.4" width="69" height="69" patternUnits="userSpaceOnUse" id="Polka_Dot_Pattern" viewBox="2.1 -70.9 69 69" style="overflow:visible;">
	<g>
		<rect x="2.1" y="-70.9" class="st0" width="69" height="69"/>
		<rect x="2.1" y="-70.9" class="st1" width="69" height="69"/>
		<g>
			<path class="st2" d="M61.8-71.7c0,0.1,0,0.1,0,0.2c-0.1,0.1-0.1,0.1-0.2,0.1c-0.1,0.1-0.1,0.3-0.1,0.4c-0.2,0.1,0,0.2,0,0.3
				c0,0,0,0.1,0,0.2c0,0.1,0,0.3,0.1,0.4c0.1,0.2,0.3,0.4,0.4,0.5c0.2,0.1,0.4,0.6,0.6,0.6c0.2,0,0.4-0.1,0.5-0.1
				c0.2,0,0.4,0,0.6-0.1c0.2-0.1,0.1-0.3,0.3-0.5c0.1-0.1,0.3,0,0.4-0.1c0.2-0.1,0.3-0.3,0.4-0.5c0-0.1,0-0.1,0-0.2
				c0-0.1,0.1-0.2,0.1-0.3c0-0.1-0.1-0.1-0.1-0.2c0-0.1,0-0.2,0-0.3c0-0.2,0-0.4-0.1-0.5c-0.4-0.7-1.2-0.9-2-0.8
				c-0.2,0-0.3,0.1-0.4,0.2c-0.2,0.1-0.1,0.2-0.3,0.2c-0.1,0-0.2,0.1-0.2,0.2C61.8-71.7,61.8-71.7,61.8-71.7
				C61.8-71.6,61.8-71.6,61.8-71.7"/>
			<path class="st2" d="M54.1-71.7c0,0.1,0,0.1,0,0.2c-0.1,0.1-0.1,0.1-0.2,0.1c-0.1,0.1-0.1,0.3-0.1,0.4c-0.2,0.1,0,0.2,0,0.3
				c0,0,0,0.1,0,0.2c0,0.1,0,0.3,0.1,0.4c0.1,0.2,0.3,0.4,0.4,0.5c0.2,0.1,0.4,0.6,0.6,0.6c0.2,0,0.4-0.1,0.5-0.1
				c0.2,0,0.4,0,0.6-0.1c0.2-0.1,0.1-0.3,0.3-0.5c0.1-0.1,0.3,0,0.4-0.1c0.2-0.1,0.3-0.3,0.4-0.5c0-0.1,0-0.1,0-0.2
				c0-0.1,0.1-0.2,0.1-0.3c0-0.1-0.1-0.1-0.1-0.2c0-0.1,0-0.2,0-0.3c0-0.2,0-0.4-0.1-0.5c-0.4-0.7-1.2-0.9-2-0.8
				c-0.2,0-0.3,0.1-0.4,0.2c-0.2,0.1-0.1,0.2-0.3,0.2c-0.1,0-0.2,0.1-0.2,0.2C54.1-71.7,54.1-71.7,54.1-71.7
				C54.1-71.6,54.1-71.6,54.1-71.7"/>
			<path class="st2" d="M46.4-71.7c0,0.1,0,0.1,0,0.2c-0.1,0.1-0.1,0.1-0.2,0.1c-0.1,0.1-0.1,0.3-0.1,0.4c-0.2,0.1,0,0.2,0,0.3
				c0,0,0,0.1,0,0.2c0,0.1,0,0.3,0.1,0.4c0.1,0.2,0.3,0.4,0.4,0.5c0.2,0.1,0.4,0.6,0.6,0.6c0.2,0,0.4-0.1,0.5-0.1
				c0.2,0,0.4,0,0.6-0.1c0.2-0.1,0.1-0.3,0.3-0.5c0.1-0.1,0.3,0,0.4-0.1c0.2-0.1,0.3-0.3,0.4-0.5c0-0.1,0-0.1,0-0.2
				c0-0.1,0.1-0.2,0.1-0.3c0-0.1-0.1-0.1-0.1-0.2c0-0.1,0-0.2,0-0.3c0-0.2,0-0.4-0.1-0.5c-0.4-0.7-1.2-0.9-2-0.8
				c-0.2,0-0.3,0.1-0.4,0.2c-0.2,0.1-0.1,0.2-0.3,0.2c-0.1,0-0.2,0.1-0.2,0.2C46.4-71.7,46.4-71.7,46.4-71.7
				C46.4-71.6,46.4-71.6,46.4-71.7"/>
			<path class="st2" d="M38.8-71.7c0,0.1,0,0.1,0,0.2c-0.1,0.1-0.1,0.1-0.2,0.1c-0.1,0.1-0.1,0.3-0.1,0.4c-0.2,0.1,0,0.2,0,0.3
				c0,0,0,0.1,0,0.2c0,0.1,0,0.3,0.1,0.4c0.1,0.2,0.3,0.4,0.4,0.5c0.2,0.1,0.4,0.6,0.6,0.6c0.2,0,0.4-0.1,0.5-0.1
				c0.2,0,0.4,0,0.6-0.1c0.2-0.1,0.1-0.3,0.3-0.5c0.1-0.1,0.3,0,0.4-0.1c0.2-0.1,0.3-0.3,0.4-0.5c0-0.1,0-0.1,0-0.2
				c0-0.1,0.1-0.2,0.1-0.3c0-0.1-0.1-0.1-0.1-0.2c0-0.1,0-0.2,0-0.3c0-0.2,0-0.4-0.1-0.5c-0.4-0.7-1.2-0.9-2-0.8
				c-0.2,0-0.3,0.1-0.4,0.2c-0.2,0.1-0.1,0.2-0.3,0.2c-0.1,0-0.2,0.1-0.2,0.2C38.8-71.7,38.8-71.7,38.8-71.7
				C38.8-71.6,38.8-71.6,38.8-71.7"/>
			<path class="st2" d="M31.1-71.7c0,0.1,0,0.1,0,0.2c-0.1,0.1-0.1,0.1-0.2,0.1c-0.1,0.1-0.1,0.3-0.1,0.4c-0.2,0.1,0,0.2,0,0.3
				c0,0,0,0.1,0,0.2c0,0.1,0,0.3,0.1,0.4c0.1,0.2,0.3,0.4,0.4,0.5c0.2,0.1,0.4,0.6,0.6,0.6c0.2,0,0.4-0.1,0.5-0.1
				c0.2,0,0.4,0,0.6-0.1c0.2-0.1,0.1-0.3,0.3-0.5c0.1-0.1,0.3,0,0.4-0.1c0.2-0.1,0.3-0.3,0.4-0.5c0-0.1,0-0.1,0-0.2
				c0-0.1,0.1-0.2,0.1-0.3c0-0.1-0.1-0.1-0.1-0.2c0-0.1,0-0.2,0-0.3c0-0.2,0-0.4-0.1-0.5c-0.4-0.7-1.2-0.9-2-0.8
				c-0.2,0-0.3,0.1-0.4,0.2c-0.2,0.1-0.1,0.2-0.3,0.2c-0.1,0-0.2,0.1-0.2,0.2C31.1-71.7,31.1-71.7,31.1-71.7
				C31.1-71.6,31.1-71.6,31.1-71.7"/>
			<path class="st2" d="M23.4-71.7c0,0.1,0,0.1,0,0.2c-0.1,0.1-0.1,0.1-0.2,0.1c-0.1,0.1-0.1,0.3-0.1,0.4c-0.2,0.1,0,0.2,0,0.3
				c0,0,0,0.1,0,0.2c0,0.1,0,0.3,0.1,0.4c0.1,0.2,0.3,0.4,0.4,0.5c0.2,0.1,0.4,0.6,0.6,0.6c0.2,0,0.4-0.1,0.5-0.1
				c0.2,0,0.4,0,0.6-0.1c0.2-0.1,0.1-0.3,0.3-0.5c0.1-0.1,0.3,0,0.4-0.1c0.2-0.1,0.3-0.3,0.4-0.5c0-0.1,0-0.1,0-0.2
				c0-0.1,0.1-0.2,0.1-0.3c0-0.1-0.1-0.1-0.1-0.2c0-0.1,0-0.2,0-0.3c0-0.2,0-0.4-0.1-0.5c-0.4-0.7-1.2-0.9-2-0.8
				c-0.2,0-0.3,0.1-0.4,0.2c-0.2,0.1-0.1,0.2-0.3,0.2c-0.1,0-0.2,0.1-0.2,0.2C23.4-71.7,23.4-71.7,23.4-71.7
				C23.4-71.6,23.4-71.6,23.4-71.7"/>
			<path class="st2" d="M15.8-71.7c0,0.1,0,0.1,0,0.2c-0.1,0.1-0.1,0.1-0.2,0.1c-0.1,0.1-0.1,0.3-0.1,0.4c-0.2,0.1,0,0.2,0,0.3
				c0,0,0,0.1,0,0.2c0,0.1,0,0.3,0.1,0.4c0.1,0.2,0.3,0.4,0.4,0.5c0.2,0.1,0.4,0.6,0.6,0.6c0.2,0,0.4-0.1,0.5-0.1
				c0.2,0,0.4,0,0.6-0.1c0.2-0.1,0.1-0.3,0.3-0.5c0.1-0.1,0.3,0,0.4-0.1c0.2-0.1,0.3-0.3,0.4-0.5c0-0.1,0-0.1,0-0.2
				c0-0.1,0.1-0.2,0.1-0.3c0-0.1-0.1-0.1-0.1-0.2c0-0.1,0-0.2,0-0.3c0-0.2,0-0.4-0.1-0.5c-0.4-0.7-1.2-0.9-2-0.8
				c-0.2,0-0.3,0.1-0.4,0.2c-0.2,0.1-0.1,0.2-0.3,0.2c-0.1,0-0.2,0.1-0.2,0.2C15.8-71.7,15.8-71.7,15.8-71.7
				C15.8-71.6,15.8-71.6,15.8-71.7"/>
			<path class="st2" d="M8.1-71.7c0,0.1,0,0.1,0,0.2C8-71.4,8-71.4,7.9-71.3c-0.1,0.1-0.1,0.3-0.1,0.4c-0.2,0.1,0,0.2,0,0.3
				c0,0,0,0.1,0,0.2c0,0.1,0,0.3,0.1,0.4c0.1,0.2,0.3,0.4,0.4,0.5c0.2,0.1,0.4,0.6,0.6,0.6c0.2,0,0.4-0.1,0.5-0.1
				c0.2,0,0.4,0,0.6-0.1c0.2-0.1,0.1-0.3,0.3-0.5c0.1-0.1,0.3,0,0.4-0.1c0.2-0.1,0.3-0.3,0.4-0.5c0-0.1,0-0.1,0-0.2
				c0-0.1,0.1-0.2,0.1-0.3c0-0.1-0.1-0.1-0.1-0.2c0-0.1,0-0.2,0-0.3c0-0.2,0-0.4-0.1-0.5c-0.4-0.7-1.2-0.9-2-0.8
				c-0.2,0-0.3,0.1-0.4,0.2c-0.2,0.1-0.1,0.2-0.3,0.2c-0.1,0-0.2,0.1-0.2,0.2C8.1-71.7,8.1-71.7,8.1-71.7
				C8.1-71.6,8.1-71.6,8.1-71.7"/>
			<path class="st2" d="M0.4-71.7c0,0.1,0,0.1,0,0.2c-0.1,0.1-0.1,0.1-0.2,0.1c-0.1,0.1-0.1,0.3-0.1,0.4c-0.2,0.1,0,0.2,0,0.3
				c0,0,0,0.1,0,0.2c0,0.1,0,0.3,0.1,0.4c0.1,0.2,0.3,0.4,0.4,0.5C0.8-69.4,1-69,1.2-68.9c0.2,0,0.4-0.1,0.5-0.1
				c0.2,0,0.4,0,0.6-0.1c0.2-0.1,0.1-0.3,0.3-0.5c0.1-0.1,0.3,0,0.4-0.1c0.2-0.1,0.3-0.3,0.4-0.5c0-0.1,0-0.1,0-0.2
				c0-0.1,0.1-0.2,0.1-0.3c0-0.1-0.1-0.1-0.1-0.2c0-0.1,0-0.2,0-0.3c0-0.2,0-0.4-0.1-0.5c-0.4-0.7-1.2-0.9-2-0.8
				c-0.2,0-0.3,0.1-0.4,0.2c-0.2,0.1-0.1,0.2-0.3,0.2c-0.1,0-0.2,0.1-0.2,0.2C0.4-71.7,0.4-71.7,0.4-71.7
				C0.4-71.6,0.4-71.6,0.4-71.7"/>
		</g>
		<g>
			<path class="st2" d="M69.4-71.7c0,0.1,0,0.1,0,0.2c-0.1,0.1-0.1,0.1-0.2,0.1c-0.1,0.1-0.1,0.3-0.1,0.4c-0.2,0.1,0,0.2,0,0.3
				c0,0,0,0.1,0,0.2c0,0.1,0,0.3,0.1,0.4c0.1,0.2,0.3,0.4,0.4,0.5c0.2,0.1,0.4,0.6,0.6,0.6c0.2,0,0.4-0.1,0.5-0.1
				c0.2,0,0.4,0,0.6-0.1c0.2-0.1,0.1-0.3,0.3-0.5c0.1-0.1,0.3,0,0.4-0.1c0.2-0.1,0.3-0.3,0.4-0.5c0-0.1,0-0.1,0-0.2
				c0-0.1,0.1-0.2,0.1-0.3c0-0.1-0.1-0.1-0.1-0.2c0-0.1,0-0.2,0-0.3c0-0.2,0-0.4-0.1-0.5c-0.4-0.7-1.2-0.9-2-0.8
				c-0.2,0-0.3,0.1-0.4,0.2c-0.2,0.1-0.1,0.2-0.3,0.2c-0.1,0-0.2,0.1-0.2,0.2C69.4-71.7,69.4-71.7,69.4-71.7
				C69.4-71.6,69.4-71.6,69.4-71.7"/>
		</g>
		<path class="st2" d="M0.5-71.7c0,0.1,0,0.1,0,0.2c-0.1,0.1-0.1,0.1-0.2,0.1c-0.1,0.1-0.1,0.3-0.1,0.4c-0.2,0.1,0,0.2,0,0.3
			c0,0,0,0.1,0,0.2c0,0.1,0,0.3,0.1,0.4c0.1,0.2,0.3,0.4,0.4,0.5C0.9-69.4,1-69,1.3-68.9c0.2,0,0.4-0.1,0.5-0.1c0.2,0,0.4,0,0.6-0.1
			c0.2-0.1,0.1-0.3,0.3-0.5c0.1-0.1,0.3,0,0.4-0.1c0.2-0.1,0.3-0.3,0.4-0.5c0-0.1,0-0.1,0-0.2c0-0.1,0.1-0.2,0.1-0.3
			c0-0.1-0.1-0.1-0.1-0.2c0-0.1,0-0.2,0-0.3c0-0.2,0-0.4-0.1-0.5c-0.4-0.7-1.2-0.9-2-0.8c-0.2,0-0.3,0.1-0.4,0.2
			c-0.2,0.1-0.1,0.2-0.3,0.2c-0.1,0-0.2,0.1-0.2,0.2C0.5-71.7,0.5-71.7,0.5-71.7C0.5-71.6,0.5-71.6,0.5-71.7"/>
		<g>
			<g>
				<path class="st2" d="M69.4-64c0,0.1,0,0.1,0,0.2c-0.1,0.1-0.1,0.1-0.2,0.1c-0.1,0.1-0.1,0.3-0.1,0.4c-0.2,0.1,0,0.2,0,0.3
					c0,0,0,0.1,0,0.2c0,0.1,0,0.3,0.1,0.4c0.1,0.2,0.3,0.4,0.4,0.5c0.2,0.1,0.4,0.6,0.6,0.6c0.2,0,0.4-0.1,0.5-0.1
					c0.2,0,0.4,0,0.6-0.1c0.2-0.1,0.1-0.3,0.3-0.5c0.1-0.1,0.3,0,0.4-0.1c0.2-0.1,0.3-0.3,0.4-0.5c0-0.1,0-0.1,0-0.2
					c0-0.1,0.1-0.2,0.1-0.3c0-0.1-0.1-0.1-0.1-0.2c0-0.1,0-0.2,0-0.3c0-0.2,0-0.4-0.1-0.5c-0.4-0.7-1.2-0.9-2-0.8
					c-0.2,0-0.3,0.1-0.4,0.2c-0.2,0.1-0.1,0.2-0.3,0.2c-0.1,0-0.2,0.1-0.2,0.2C69.4-64,69.4-64.1,69.4-64C69.4-64,69.4-64,69.4-64"
					/>
				<path class="st2" d="M61.8-64c0,0.1,0,0.1,0,0.2c-0.1,0.1-0.1,0.1-0.2,0.1c-0.1,0.1-0.1,0.3-0.1,0.4c-0.2,0.1,0,0.2,0,0.3
					c0,0,0,0.1,0,0.2c0,0.1,0,0.3,0.1,0.4c0.1,0.2,0.3,0.4,0.4,0.5c0.2,0.1,0.4,0.6,0.6,0.6c0.2,0,0.4-0.1,0.5-0.1
					c0.2,0,0.4,0,0.6-0.1c0.2-0.1,0.1-0.3,0.3-0.5c0.1-0.1,0.3,0,0.4-0.1c0.2-0.1,0.3-0.3,0.4-0.5c0-0.1,0-0.1,0-0.2
					c0-0.1,0.1-0.2,0.1-0.3c0-0.1-0.1-0.1-0.1-0.2c0-0.1,0-0.2,0-0.3c0-0.2,0-0.4-0.1-0.5c-0.4-0.7-1.2-0.9-2-0.8
					c-0.2,0-0.3,0.1-0.4,0.2c-0.2,0.1-0.1,0.2-0.3,0.2c-0.1,0-0.2,0.1-0.2,0.2C61.8-64,61.8-64.1,61.8-64C61.8-64,61.8-64,61.8-64"
					/>
				<path class="st2" d="M54.1-64c0,0.1,0,0.1,0,0.2c-0.1,0.1-0.1,0.1-0.2,0.1c-0.1,0.1-0.1,0.3-0.1,0.4c-0.2,0.1,0,0.2,0,0.3
					c0,0,0,0.1,0,0.2c0,0.1,0,0.3,0.1,0.4c0.1,0.2,0.3,0.4,0.4,0.5c0.2,0.1,0.4,0.6,0.6,0.6c0.2,0,0.4-0.1,0.5-0.1
					c0.2,0,0.4,0,0.6-0.1c0.2-0.1,0.1-0.3,0.3-0.5c0.1-0.1,0.3,0,0.4-0.1c0.2-0.1,0.3-0.3,0.4-0.5c0-0.1,0-0.1,0-0.2
					c0-0.1,0.1-0.2,0.1-0.3c0-0.1-0.1-0.1-0.1-0.2c0-0.1,0-0.2,0-0.3c0-0.2,0-0.4-0.1-0.5c-0.4-0.7-1.2-0.9-2-0.8
					c-0.2,0-0.3,0.1-0.4,0.2c-0.2,0.1-0.1,0.2-0.3,0.2c-0.1,0-0.2,0.1-0.2,0.2C54.1-64,54.1-64.1,54.1-64C54.1-64,54.1-64,54.1-64"
					/>
				<path class="st2" d="M46.5-64c0,0.1,0,0.1,0,0.2c-0.1,0.1-0.1,0.1-0.2,0.1c-0.1,0.1-0.1,0.3-0.1,0.4c-0.2,0.1,0,0.2,0,0.3
					c0,0,0,0.1,0,0.2c0,0.1,0,0.3,0.1,0.4c0.1,0.2,0.3,0.4,0.4,0.5c0.2,0.1,0.4,0.6,0.6,0.6c0.2,0,0.4-0.1,0.5-0.1
					c0.2,0,0.4,0,0.6-0.1c0.2-0.1,0.1-0.3,0.3-0.5c0.1-0.1,0.3,0,0.4-0.1c0.2-0.1,0.3-0.3,0.4-0.5c0-0.1,0-0.1,0-0.2
					c0-0.1,0.1-0.2,0.1-0.3c0-0.1-0.1-0.1-0.1-0.2c0-0.1,0-0.2,0-0.3c0-0.2,0-0.4-0.1-0.5c-0.4-0.7-1.2-0.9-2-0.8
					c-0.2,0-0.3,0.1-0.4,0.2c-0.2,0.1-0.1,0.2-0.3,0.2c-0.1,0-0.2,0.1-0.2,0.2C46.5-64,46.5-64.1,46.5-64C46.5-64,46.5-64,46.5-64"
					/>
				<path class="st2" d="M38.8-64c0,0.1,0,0.1,0,0.2c-0.1,0.1-0.1,0.1-0.2,0.1c-0.1,0.1-0.1,0.3-0.1,0.4c-0.2,0.1,0,0.2,0,0.3
					c0,0,0,0.1,0,0.2c0,0.1,0,0.3,0.1,0.4c0.1,0.2,0.3,0.4,0.4,0.5c0.2,0.1,0.4,0.6,0.6,0.6c0.2,0,0.4-0.1,0.5-0.1
					c0.2,0,0.4,0,0.6-0.1c0.2-0.1,0.1-0.3,0.3-0.5c0.1-0.1,0.3,0,0.4-0.1c0.2-0.1,0.3-0.3,0.4-0.5c0-0.1,0-0.1,0-0.2
					c0-0.1,0.1-0.2,0.1-0.3c0-0.1-0.1-0.1-0.1-0.2c0-0.1,0-0.2,0-0.3c0-0.2,0-0.4-0.1-0.5c-0.4-0.7-1.2-0.9-2-0.8
					c-0.2,0-0.3,0.1-0.4,0.2c-0.2,0.1-0.1,0.2-0.3,0.2c-0.1,0-0.2,0.1-0.2,0.2C38.8-64,38.8-64.1,38.8-64C38.8-64,38.8-64,38.8-64"
					/>
				<path class="st2" d="M31.1-64c0,0.1,0,0.1,0,0.2c-0.1,0.1-0.1,0.1-0.2,0.1c-0.1,0.1-0.1,0.3-0.1,0.4c-0.2,0.1,0,0.2,0,0.3
					c0,0,0,0.1,0,0.2c0,0.1,0,0.3,0.1,0.4c0.1,0.2,0.3,0.4,0.4,0.5c0.2,0.1,0.4,0.6,0.6,0.6c0.2,0,0.4-0.1,0.5-0.1
					c0.2,0,0.4,0,0.6-0.1c0.2-0.1,0.1-0.3,0.3-0.5c0.1-0.1,0.3,0,0.4-0.1c0.2-0.1,0.3-0.3,0.4-0.5c0-0.1,0-0.1,0-0.2
					c0-0.1,0.1-0.2,0.1-0.3c0-0.1-0.1-0.1-0.1-0.2c0-0.1,0-0.2,0-0.3c0-0.2,0-0.4-0.1-0.5c-0.4-0.7-1.2-0.9-2-0.8
					c-0.2,0-0.3,0.1-0.4,0.2c-0.2,0.1-0.1,0.2-0.3,0.2c-0.1,0-0.2,0.1-0.2,0.2C31.1-64,31.1-64.1,31.1-64C31.1-64,31.1-64,31.1-64"
					/>
				<path class="st2" d="M23.5-64c0,0.1,0,0.1,0,0.2c-0.1,0.1-0.1,0.1-0.2,0.1c-0.1,0.1-0.1,0.3-0.1,0.4c-0.2,0.1,0,0.2,0,0.3
					c0,0,0,0.1,0,0.2c0,0.1,0,0.3,0.1,0.4c0.1,0.2,0.3,0.4,0.4,0.5c0.2,0.1,0.4,0.6,0.6,0.6c0.2,0,0.4-0.1,0.5-0.1
					c0.2,0,0.4,0,0.6-0.1c0.2-0.1,0.1-0.3,0.3-0.5c0.1-0.1,0.3,0,0.4-0.1c0.2-0.1,0.3-0.3,0.4-0.5c0-0.1,0-0.1,0-0.2
					c0-0.1,0.1-0.2,0.1-0.3c0-0.1-0.1-0.1-0.1-0.2c0-0.1,0-0.2,0-0.3c0-0.2,0-0.4-0.1-0.5c-0.4-0.7-1.2-0.9-2-0.8
					c-0.2,0-0.3,0.1-0.4,0.2c-0.2,0.1-0.1,0.2-0.3,0.2c-0.1,0-0.2,0.1-0.2,0.2C23.5-64,23.5-64.1,23.5-64C23.5-64,23.5-64,23.5-64"
					/>
				<path class="st2" d="M15.8-64c0,0.1,0,0.1,0,0.2c-0.1,0.1-0.1,0.1-0.2,0.1c-0.1,0.1-0.1,0.3-0.1,0.4c-0.2,0.1,0,0.2,0,0.3
					c0,0,0,0.1,0,0.2c0,0.1,0,0.3,0.1,0.4c0.1,0.2,0.3,0.4,0.4,0.5c0.2,0.1,0.4,0.6,0.6,0.6c0.2,0,0.4-0.1,0.5-0.1
					c0.2,0,0.4,0,0.6-0.1c0.2-0.1,0.1-0.3,0.3-0.5c0.1-0.1,0.3,0,0.4-0.1c0.2-0.1,0.3-0.3,0.4-0.5c0-0.1,0-0.1,0-0.2
					c0-0.1,0.1-0.2,0.1-0.3c0-0.1-0.1-0.1-0.1-0.2c0-0.1,0-0.2,0-0.3c0-0.2,0-0.4-0.1-0.5c-0.4-0.7-1.2-0.9-2-0.8
					c-0.2,0-0.3,0.1-0.4,0.2c-0.2,0.1-0.1,0.2-0.3,0.2c-0.1,0-0.2,0.1-0.2,0.2C15.8-64,15.8-64.1,15.8-64C15.8-64,15.8-64,15.8-64"
					/>
				<path class="st2" d="M8.2-64c0,0.1,0,0.1,0,0.2C8.1-63.7,8-63.7,8-63.7c-0.1,0.1-0.1,0.3-0.1,0.4c-0.2,0.1,0,0.2,0,0.3
					c0,0,0,0.1,0,0.2c0,0.1,0,0.3,0.1,0.4C8-62.2,8.2-62,8.3-61.9c0.2,0.1,0.4,0.6,0.6,0.6c0.2,0,0.4-0.1,0.5-0.1
					c0.2,0,0.4,0,0.6-0.1c0.2-0.1,0.1-0.3,0.3-0.5c0.1-0.1,0.3,0,0.4-0.1c0.2-0.1,0.3-0.3,0.4-0.5c0-0.1,0-0.1,0-0.2
					c0-0.1,0.1-0.2,0.1-0.3c0-0.1-0.1-0.1-0.1-0.2c0-0.1,0-0.2,0-0.3c0-0.2,0-0.4-0.1-0.5c-0.4-0.7-1.2-0.9-2-0.8
					c-0.2,0-0.3,0.1-0.4,0.2c-0.2,0.1-0.1,0.2-0.3,0.2c-0.1,0-0.2,0.1-0.2,0.2C8.2-64,8.2-64.1,8.2-64C8.1-64,8.1-64,8.2-64"/>
				<path class="st2" d="M0.5-64c0,0.1,0,0.1,0,0.2c-0.1,0.1-0.1,0.1-0.2,0.1c-0.1,0.1-0.1,0.3-0.1,0.4c-0.2,0.1,0,0.2,0,0.3
					c0,0,0,0.1,0,0.2c0,0.1,0,0.3,0.1,0.4c0.1,0.2,0.3,0.4,0.4,0.5c0.2,0.1,0.4,0.6,0.6,0.6c0.2,0,0.4-0.1,0.5-0.1
					c0.2,0,0.4,0,0.6-0.1c0.2-0.1,0.1-0.3,0.3-0.5C2.8-62,3-61.9,3.1-62c0.2-0.1,0.3-0.3,0.4-0.5c0-0.1,0-0.1,0-0.2
					c0-0.1,0.1-0.2,0.1-0.3c0-0.1-0.1-0.1-0.1-0.2c0-0.1,0-0.2,0-0.3c0-0.2,0-0.4-0.1-0.5c-0.4-0.7-1.2-0.9-2-0.8
					c-0.2,0-0.3,0.1-0.4,0.2c-0.2,0.1-0.1,0.2-0.3,0.2c-0.1,0-0.2,0.1-0.2,0.2C0.5-64,0.5-64.1,0.5-64C0.5-64,0.5-64,0.5-64"/>
			</g>
			<g>
				<path class="st2" d="M69.4-56.3c0,0.1,0,0.1,0,0.2c-0.1,0.1-0.1,0.1-0.2,0.1c-0.1,0.1-0.1,0.3-0.1,0.4c-0.2,0.1,0,0.2,0,0.3
					c0,0,0,0.1,0,0.2c0,0.1,0,0.3,0.1,0.4c0.1,0.2,0.3,0.4,0.4,0.5c0.2,0.1,0.4,0.6,0.6,0.6c0.2,0,0.4-0.1,0.5-0.1
					c0.2,0,0.4,0,0.6-0.1c0.2-0.1,0.1-0.3,0.3-0.5c0.1-0.1,0.3,0,0.4-0.1c0.2-0.1,0.3-0.3,0.4-0.5c0-0.1,0-0.1,0-0.2
					c0-0.1,0.1-0.2,0.1-0.3c0-0.1-0.1-0.1-0.1-0.2c0-0.1,0-0.2,0-0.3c0-0.2,0-0.4-0.1-0.5c-0.4-0.7-1.2-0.9-2-0.8
					c-0.2,0-0.3,0.1-0.4,0.2c-0.2,0.1-0.1,0.2-0.3,0.2c-0.1,0-0.2,0.1-0.2,0.2C69.4-56.4,69.4-56.4,69.4-56.3
					C69.4-56.3,69.4-56.3,69.4-56.3"/>
				<path class="st2" d="M61.8-56.3c0,0.1,0,0.1,0,0.2c-0.1,0.1-0.1,0.1-0.2,0.1c-0.1,0.1-0.1,0.3-0.1,0.4c-0.2,0.1,0,0.2,0,0.3
					c0,0,0,0.1,0,0.2c0,0.1,0,0.3,0.1,0.4c0.1,0.2,0.3,0.4,0.4,0.5c0.2,0.1,0.4,0.6,0.6,0.6c0.2,0,0.4-0.1,0.5-0.1
					c0.2,0,0.4,0,0.6-0.1c0.2-0.1,0.1-0.3,0.3-0.5c0.1-0.1,0.3,0,0.4-0.1c0.2-0.1,0.3-0.3,0.4-0.5c0-0.1,0-0.1,0-0.2
					c0-0.1,0.1-0.2,0.1-0.3c0-0.1-0.1-0.1-0.1-0.2c0-0.1,0-0.2,0-0.3c0-0.2,0-0.4-0.1-0.5c-0.4-0.7-1.2-0.9-2-0.8
					c-0.2,0-0.3,0.1-0.4,0.2c-0.2,0.1-0.1,0.2-0.3,0.2c-0.1,0-0.2,0.1-0.2,0.2C61.8-56.4,61.8-56.4,61.8-56.3
					C61.8-56.3,61.8-56.3,61.8-56.3"/>
				<path class="st2" d="M54.1-56.3c0,0.1,0,0.1,0,0.2C54-56.1,54-56.1,53.9-56c-0.1,0.1-0.1,0.3-0.1,0.4c-0.2,0.1,0,0.2,0,0.3
					c0,0,0,0.1,0,0.2c0,0.1,0,0.3,0.1,0.4c0.1,0.2,0.3,0.4,0.4,0.5c0.2,0.1,0.4,0.6,0.6,0.6c0.2,0,0.4-0.1,0.5-0.1
					c0.2,0,0.4,0,0.6-0.1c0.2-0.1,0.1-0.3,0.3-0.5c0.1-0.1,0.3,0,0.4-0.1c0.2-0.1,0.3-0.3,0.4-0.5c0-0.1,0-0.1,0-0.2
					c0-0.1,0.1-0.2,0.1-0.3c0-0.1-0.1-0.1-0.1-0.2c0-0.1,0-0.2,0-0.3c0-0.2,0-0.4-0.1-0.5c-0.4-0.7-1.2-0.9-2-0.8
					c-0.2,0-0.3,0.1-0.4,0.2c-0.2,0.1-0.1,0.2-0.3,0.2c-0.1,0-0.2,0.1-0.2,0.2C54.1-56.4,54.1-56.4,54.1-56.3
					C54.1-56.3,54.1-56.3,54.1-56.3"/>
				<path class="st2" d="M46.5-56.3c0,0.1,0,0.1,0,0.2c-0.1,0.1-0.1,0.1-0.2,0.1c-0.1,0.1-0.1,0.3-0.1,0.4c-0.2,0.1,0,0.2,0,0.3
					c0,0,0,0.1,0,0.2c0,0.1,0,0.3,0.1,0.4c0.1,0.2,0.3,0.4,0.4,0.5c0.2,0.1,0.4,0.6,0.6,0.6c0.2,0,0.4-0.1,0.5-0.1
					c0.2,0,0.4,0,0.6-0.1c0.2-0.1,0.1-0.3,0.3-0.5c0.1-0.1,0.3,0,0.4-0.1c0.2-0.1,0.3-0.3,0.4-0.5c0-0.1,0-0.1,0-0.2
					c0-0.1,0.1-0.2,0.1-0.3c0-0.1-0.1-0.1-0.1-0.2c0-0.1,0-0.2,0-0.3c0-0.2,0-0.4-0.1-0.5c-0.4-0.7-1.2-0.9-2-0.8
					c-0.2,0-0.3,0.1-0.4,0.2c-0.2,0.1-0.1,0.2-0.3,0.2c-0.1,0-0.2,0.1-0.2,0.2C46.5-56.4,46.5-56.4,46.5-56.3
					C46.5-56.3,46.5-56.3,46.5-56.3"/>
				<path class="st2" d="M38.8-56.3c0,0.1,0,0.1,0,0.2c-0.1,0.1-0.1,0.1-0.2,0.1c-0.1,0.1-0.1,0.3-0.1,0.4c-0.2,0.1,0,0.2,0,0.3
					c0,0,0,0.1,0,0.2c0,0.1,0,0.3,0.1,0.4c0.1,0.2,0.3,0.4,0.4,0.5c0.2,0.1,0.4,0.6,0.6,0.6c0.2,0,0.4-0.1,0.5-0.1
					c0.2,0,0.4,0,0.6-0.1c0.2-0.1,0.1-0.3,0.3-0.5c0.1-0.1,0.3,0,0.4-0.1c0.2-0.1,0.3-0.3,0.4-0.5c0-0.1,0-0.1,0-0.2
					c0-0.1,0.1-0.2,0.1-0.3c0-0.1-0.1-0.1-0.1-0.2c0-0.1,0-0.2,0-0.3c0-0.2,0-0.4-0.1-0.5c-0.4-0.7-1.2-0.9-2-0.8
					c-0.2,0-0.3,0.1-0.4,0.2c-0.2,0.1-0.1,0.2-0.3,0.2c-0.1,0-0.2,0.1-0.2,0.2C38.8-56.4,38.8-56.4,38.8-56.3
					C38.8-56.3,38.8-56.3,38.8-56.3"/>
				<path class="st2" d="M31.1-56.3c0,0.1,0,0.1,0,0.2c-0.1,0.1-0.1,0.1-0.2,0.1c-0.1,0.1-0.1,0.3-0.1,0.4c-0.2,0.1,0,0.2,0,0.3
					c0,0,0,0.1,0,0.2c0,0.1,0,0.3,0.1,0.4c0.1,0.2,0.3,0.4,0.4,0.5c0.2,0.1,0.4,0.6,0.6,0.6c0.2,0,0.4-0.1,0.5-0.1
					c0.2,0,0.4,0,0.6-0.1c0.2-0.1,0.1-0.3,0.3-0.5c0.1-0.1,0.3,0,0.4-0.1c0.2-0.1,0.3-0.3,0.4-0.5c0-0.1,0-0.1,0-0.2
					c0-0.1,0.1-0.2,0.1-0.3c0-0.1-0.1-0.1-0.1-0.2c0-0.1,0-0.2,0-0.3c0-0.2,0-0.4-0.1-0.5c-0.4-0.7-1.2-0.9-2-0.8
					c-0.2,0-0.3,0.1-0.4,0.2c-0.2,0.1-0.1,0.2-0.3,0.2c-0.1,0-0.2,0.1-0.2,0.2C31.1-56.4,31.1-56.4,31.1-56.3
					C31.1-56.3,31.1-56.3,31.1-56.3"/>
				<path class="st2" d="M23.5-56.3c0,0.1,0,0.1,0,0.2c-0.1,0.1-0.1,0.1-0.2,0.1c-0.1,0.1-0.1,0.3-0.1,0.4c-0.2,0.1,0,0.2,0,0.3
					c0,0,0,0.1,0,0.2c0,0.1,0,0.3,0.1,0.4c0.1,0.2,0.3,0.4,0.4,0.5c0.2,0.1,0.4,0.6,0.6,0.6c0.2,0,0.4-0.1,0.5-0.1
					c0.2,0,0.4,0,0.6-0.1c0.2-0.1,0.1-0.3,0.3-0.5c0.1-0.1,0.3,0,0.4-0.1c0.2-0.1,0.3-0.3,0.4-0.5c0-0.1,0-0.1,0-0.2
					c0-0.1,0.1-0.2,0.1-0.3c0-0.1-0.1-0.1-0.1-0.2c0-0.1,0-0.2,0-0.3c0-0.2,0-0.4-0.1-0.5c-0.4-0.7-1.2-0.9-2-0.8
					c-0.2,0-0.3,0.1-0.4,0.2c-0.2,0.1-0.1,0.2-0.3,0.2c-0.1,0-0.2,0.1-0.2,0.2C23.5-56.4,23.5-56.4,23.5-56.3
					C23.5-56.3,23.5-56.3,23.5-56.3"/>
				<path class="st2" d="M15.8-56.3c0,0.1,0,0.1,0,0.2c-0.1,0.1-0.1,0.1-0.2,0.1c-0.1,0.1-0.1,0.3-0.1,0.4c-0.2,0.1,0,0.2,0,0.3
					c0,0,0,0.1,0,0.2c0,0.1,0,0.3,0.1,0.4c0.1,0.2,0.3,0.4,0.4,0.5c0.2,0.1,0.4,0.6,0.6,0.6c0.2,0,0.4-0.1,0.5-0.1
					c0.2,0,0.4,0,0.6-0.1c0.2-0.1,0.1-0.3,0.3-0.5c0.1-0.1,0.3,0,0.4-0.1c0.2-0.1,0.3-0.3,0.4-0.5c0-0.1,0-0.1,0-0.2
					c0-0.1,0.1-0.2,0.1-0.3c0-0.1-0.1-0.1-0.1-0.2c0-0.1,0-0.2,0-0.3c0-0.2,0-0.4-0.1-0.5c-0.4-0.7-1.2-0.9-2-0.8
					c-0.2,0-0.3,0.1-0.4,0.2c-0.2,0.1-0.1,0.2-0.3,0.2c-0.1,0-0.2,0.1-0.2,0.2C15.8-56.4,15.8-56.4,15.8-56.3
					C15.8-56.3,15.8-56.3,15.8-56.3"/>
				<path class="st2" d="M8.2-56.3c0,0.1,0,0.1,0,0.2C8.1-56.1,8-56.1,8-56c-0.1,0.1-0.1,0.3-0.1,0.4c-0.2,0.1,0,0.2,0,0.3
					c0,0,0,0.1,0,0.2c0,0.1,0,0.3,0.1,0.4c0.1,0.2,0.3,0.4,0.4,0.5c0.2,0.1,0.4,0.6,0.6,0.6c0.2,0,0.4-0.1,0.5-0.1
					c0.2,0,0.4,0,0.6-0.1c0.2-0.1,0.1-0.3,0.3-0.5c0.1-0.1,0.3,0,0.4-0.1c0.2-0.1,0.3-0.3,0.4-0.5c0-0.1,0-0.1,0-0.2
					c0-0.1,0.1-0.2,0.1-0.3c0-0.1-0.1-0.1-0.1-0.2c0-0.1,0-0.2,0-0.3c0-0.2,0-0.4-0.1-0.5c-0.4-0.7-1.2-0.9-2-0.8
					c-0.2,0-0.3,0.1-0.4,0.2c-0.2,0.1-0.1,0.2-0.3,0.2c-0.1,0-0.2,0.1-0.2,0.2C8.2-56.4,8.2-56.4,8.2-56.3
					C8.1-56.3,8.1-56.3,8.2-56.3"/>
				<path class="st2" d="M0.5-56.3c0,0.1,0,0.1,0,0.2c-0.1,0.1-0.1,0.1-0.2,0.1c-0.1,0.1-0.1,0.3-0.1,0.4c-0.2,0.1,0,0.2,0,0.3
					c0,0,0,0.1,0,0.2c0,0.1,0,0.3,0.1,0.4c0.1,0.2,0.3,0.4,0.4,0.5c0.2,0.1,0.4,0.6,0.6,0.6c0.2,0,0.4-0.1,0.5-0.1
					c0.2,0,0.4,0,0.6-0.1c0.2-0.1,0.1-0.3,0.3-0.5c0.1-0.1,0.3,0,0.4-0.1c0.2-0.1,0.3-0.3,0.4-0.5c0-0.1,0-0.1,0-0.2
					c0-0.1,0.1-0.2,0.1-0.3c0-0.1-0.1-0.1-0.1-0.2c0-0.1,0-0.2,0-0.3c0-0.2,0-0.4-0.1-0.5c-0.4-0.7-1.2-0.9-2-0.8
					c-0.2,0-0.3,0.1-0.4,0.2c-0.2,0.1-0.1,0.2-0.3,0.2c-0.1,0-0.2,0.1-0.2,0.2C0.5-56.4,0.5-56.4,0.5-56.3
					C0.5-56.3,0.5-56.3,0.5-56.3"/>
			</g>
			<g>
				<path class="st2" d="M69.4-48.7c0,0.1,0,0.1,0,0.2c-0.1,0.1-0.1,0.1-0.2,0.1c-0.1,0.1-0.1,0.3-0.1,0.4c-0.2,0.1,0,0.2,0,0.3
					c0,0,0,0.1,0,0.2c0,0.1,0,0.3,0.1,0.4c0.1,0.2,0.3,0.4,0.4,0.5c0.2,0.1,0.4,0.6,0.6,0.6c0.2,0,0.4-0.1,0.5-0.1
					c0.2,0,0.4,0,0.6-0.1c0.2-0.1,0.1-0.3,0.3-0.5c0.1-0.1,0.3,0,0.4-0.1c0.2-0.1,0.3-0.3,0.4-0.5c0-0.1,0-0.1,0-0.2
					c0-0.1,0.1-0.2,0.1-0.3c0-0.1-0.1-0.1-0.1-0.2c0-0.1,0-0.2,0-0.3c0-0.2,0-0.4-0.1-0.5c-0.4-0.7-1.2-0.9-2-0.8
					c-0.2,0-0.3,0.1-0.4,0.2c-0.2,0.1-0.1,0.2-0.3,0.2c-0.1,0-0.2,0.1-0.2,0.2C69.4-48.7,69.4-48.8,69.4-48.7
					C69.4-48.7,69.4-48.7,69.4-48.7"/>
				<path class="st2" d="M61.8-48.7c0,0.1,0,0.1,0,0.2c-0.1,0.1-0.1,0.1-0.2,0.1c-0.1,0.1-0.1,0.3-0.1,0.4c-0.2,0.1,0,0.2,0,0.3
					c0,0,0,0.1,0,0.2c0,0.1,0,0.3,0.1,0.4c0.1,0.2,0.3,0.4,0.4,0.5c0.2,0.1,0.4,0.6,0.6,0.6c0.2,0,0.4-0.1,0.5-0.1
					c0.2,0,0.4,0,0.6-0.1c0.2-0.1,0.1-0.3,0.3-0.5c0.1-0.1,0.3,0,0.4-0.1c0.2-0.1,0.3-0.3,0.4-0.5c0-0.1,0-0.1,0-0.2
					c0-0.1,0.1-0.2,0.1-0.3c0-0.1-0.1-0.1-0.1-0.2c0-0.1,0-0.2,0-0.3c0-0.2,0-0.4-0.1-0.5c-0.4-0.7-1.2-0.9-2-0.8
					c-0.2,0-0.3,0.1-0.4,0.2c-0.2,0.1-0.1,0.2-0.3,0.2c-0.1,0-0.2,0.1-0.2,0.2C61.8-48.7,61.8-48.8,61.8-48.7
					C61.8-48.7,61.8-48.7,61.8-48.7"/>
				<path class="st2" d="M54.1-48.7c0,0.1,0,0.1,0,0.2c-0.1,0.1-0.1,0.1-0.2,0.1c-0.1,0.1-0.1,0.3-0.1,0.4c-0.2,0.1,0,0.2,0,0.3
					c0,0,0,0.1,0,0.2c0,0.1,0,0.3,0.1,0.4c0.1,0.2,0.3,0.4,0.4,0.5c0.2,0.1,0.4,0.6,0.6,0.6c0.2,0,0.4-0.1,0.5-0.1
					c0.2,0,0.4,0,0.6-0.1c0.2-0.1,0.1-0.3,0.3-0.5c0.1-0.1,0.3,0,0.4-0.1c0.2-0.1,0.3-0.3,0.4-0.5c0-0.1,0-0.1,0-0.2
					c0-0.1,0.1-0.2,0.1-0.3c0-0.1-0.1-0.1-0.1-0.2c0-0.1,0-0.2,0-0.3c0-0.2,0-0.4-0.1-0.5c-0.4-0.7-1.2-0.9-2-0.8
					c-0.2,0-0.3,0.1-0.4,0.2c-0.2,0.1-0.1,0.2-0.3,0.2c-0.1,0-0.2,0.1-0.2,0.2C54.1-48.7,54.1-48.8,54.1-48.7
					C54.1-48.7,54.1-48.7,54.1-48.7"/>
				<path class="st2" d="M46.5-48.7c0,0.1,0,0.1,0,0.2c-0.1,0.1-0.1,0.1-0.2,0.1c-0.1,0.1-0.1,0.3-0.1,0.4c-0.2,0.1,0,0.2,0,0.3
					c0,0,0,0.1,0,0.2c0,0.1,0,0.3,0.1,0.4c0.1,0.2,0.3,0.4,0.4,0.5c0.2,0.1,0.4,0.6,0.6,0.6c0.2,0,0.4-0.1,0.5-0.1
					c0.2,0,0.4,0,0.6-0.1c0.2-0.1,0.1-0.3,0.3-0.5c0.1-0.1,0.3,0,0.4-0.1c0.2-0.1,0.3-0.3,0.4-0.5c0-0.1,0-0.1,0-0.2
					c0-0.1,0.1-0.2,0.1-0.3c0-0.1-0.1-0.1-0.1-0.2c0-0.1,0-0.2,0-0.3c0-0.2,0-0.4-0.1-0.5c-0.4-0.7-1.2-0.9-2-0.8
					c-0.2,0-0.3,0.1-0.4,0.2c-0.2,0.1-0.1,0.2-0.3,0.2c-0.1,0-0.2,0.1-0.2,0.2C46.5-48.7,46.5-48.8,46.5-48.7
					C46.5-48.7,46.5-48.7,46.5-48.7"/>
				<path class="st2" d="M38.8-48.7c0,0.1,0,0.1,0,0.2c-0.1,0.1-0.1,0.1-0.2,0.1c-0.1,0.1-0.1,0.3-0.1,0.4c-0.2,0.1,0,0.2,0,0.3
					c0,0,0,0.1,0,0.2c0,0.1,0,0.3,0.1,0.4c0.1,0.2,0.3,0.4,0.4,0.5c0.2,0.1,0.4,0.6,0.6,0.6c0.2,0,0.4-0.1,0.5-0.1
					c0.2,0,0.4,0,0.6-0.1c0.2-0.1,0.1-0.3,0.3-0.5c0.1-0.1,0.3,0,0.4-0.1c0.2-0.1,0.3-0.3,0.4-0.5c0-0.1,0-0.1,0-0.2
					c0-0.1,0.1-0.2,0.1-0.3c0-0.1-0.1-0.1-0.1-0.2c0-0.1,0-0.2,0-0.3c0-0.2,0-0.4-0.1-0.5c-0.4-0.7-1.2-0.9-2-0.8
					c-0.2,0-0.3,0.1-0.4,0.2c-0.2,0.1-0.1,0.2-0.3,0.2c-0.1,0-0.2,0.1-0.2,0.2C38.8-48.7,38.8-48.8,38.8-48.7
					C38.8-48.7,38.8-48.7,38.8-48.7"/>
				<path class="st2" d="M31.1-48.7c0,0.1,0,0.1,0,0.2c-0.1,0.1-0.1,0.1-0.2,0.1c-0.1,0.1-0.1,0.3-0.1,0.4c-0.2,0.1,0,0.2,0,0.3
					c0,0,0,0.1,0,0.2c0,0.1,0,0.3,0.1,0.4c0.1,0.2,0.3,0.4,0.4,0.5c0.2,0.1,0.4,0.6,0.6,0.6c0.2,0,0.4-0.1,0.5-0.1
					c0.2,0,0.4,0,0.6-0.1c0.2-0.1,0.1-0.3,0.3-0.5c0.1-0.1,0.3,0,0.4-0.1c0.2-0.1,0.3-0.3,0.4-0.5c0-0.1,0-0.1,0-0.2
					c0-0.1,0.1-0.2,0.1-0.3c0-0.1-0.1-0.1-0.1-0.2c0-0.1,0-0.2,0-0.3c0-0.2,0-0.4-0.1-0.5c-0.4-0.7-1.2-0.9-2-0.8
					c-0.2,0-0.3,0.1-0.4,0.2c-0.2,0.1-0.1,0.2-0.3,0.2c-0.1,0-0.2,0.1-0.2,0.2C31.1-48.7,31.1-48.8,31.1-48.7
					C31.1-48.7,31.1-48.7,31.1-48.7"/>
				<path class="st2" d="M23.5-48.7c0,0.1,0,0.1,0,0.2c-0.1,0.1-0.1,0.1-0.2,0.1c-0.1,0.1-0.1,0.3-0.1,0.4c-0.2,0.1,0,0.2,0,0.3
					c0,0,0,0.1,0,0.2c0,0.1,0,0.3,0.1,0.4c0.1,0.2,0.3,0.4,0.4,0.5c0.2,0.1,0.4,0.6,0.6,0.6c0.2,0,0.4-0.1,0.5-0.1
					c0.2,0,0.4,0,0.6-0.1c0.2-0.1,0.1-0.3,0.3-0.5c0.1-0.1,0.3,0,0.4-0.1c0.2-0.1,0.3-0.3,0.4-0.5c0-0.1,0-0.1,0-0.2
					c0-0.1,0.1-0.2,0.1-0.3c0-0.1-0.1-0.1-0.1-0.2c0-0.1,0-0.2,0-0.3c0-0.2,0-0.4-0.1-0.5c-0.4-0.7-1.2-0.9-2-0.8
					c-0.2,0-0.3,0.1-0.4,0.2c-0.2,0.1-0.1,0.2-0.3,0.2c-0.1,0-0.2,0.1-0.2,0.2C23.5-48.7,23.5-48.8,23.5-48.7
					C23.5-48.7,23.5-48.7,23.5-48.7"/>
				<path class="st2" d="M15.8-48.7c0,0.1,0,0.1,0,0.2c-0.1,0.1-0.1,0.1-0.2,0.1c-0.1,0.1-0.1,0.3-0.1,0.4c-0.2,0.1,0,0.2,0,0.3
					c0,0,0,0.1,0,0.2c0,0.1,0,0.3,0.1,0.4c0.1,0.2,0.3,0.4,0.4,0.5c0.2,0.1,0.4,0.6,0.6,0.6c0.2,0,0.4-0.1,0.5-0.1
					c0.2,0,0.4,0,0.6-0.1c0.2-0.1,0.1-0.3,0.3-0.5c0.1-0.1,0.3,0,0.4-0.1c0.2-0.1,0.3-0.3,0.4-0.5c0-0.1,0-0.1,0-0.2
					c0-0.1,0.1-0.2,0.1-0.3c0-0.1-0.1-0.1-0.1-0.2c0-0.1,0-0.2,0-0.3c0-0.2,0-0.4-0.1-0.5c-0.4-0.7-1.2-0.9-2-0.8
					c-0.2,0-0.3,0.1-0.4,0.2c-0.2,0.1-0.1,0.2-0.3,0.2c-0.1,0-0.2,0.1-0.2,0.2C15.8-48.7,15.8-48.8,15.8-48.7
					C15.8-48.7,15.8-48.7,15.8-48.7"/>
				<path class="st2" d="M8.2-48.7c0,0.1,0,0.1,0,0.2C8.1-48.4,8-48.4,8-48.4c-0.1,0.1-0.1,0.3-0.1,0.4c-0.2,0.1,0,0.2,0,0.3
					c0,0,0,0.1,0,0.2c0,0.1,0,0.3,0.1,0.4c0.1,0.2,0.3,0.4,0.4,0.5C8.5-46.4,8.7-46,8.9-46c0.2,0,0.4-0.1,0.5-0.1
					c0.2,0,0.4,0,0.6-0.1c0.2-0.1,0.1-0.3,0.3-0.5c0.1-0.1,0.3,0,0.4-0.1c0.2-0.1,0.3-0.3,0.4-0.5c0-0.1,0-0.1,0-0.2
					c0-0.1,0.1-0.2,0.1-0.3c0-0.1-0.1-0.1-0.1-0.2c0-0.1,0-0.2,0-0.3c0-0.2,0-0.4-0.1-0.5c-0.4-0.7-1.2-0.9-2-0.8
					c-0.2,0-0.3,0.1-0.4,0.2c-0.2,0.1-0.1,0.2-0.3,0.2c-0.1,0-0.2,0.1-0.2,0.2C8.2-48.7,8.2-48.8,8.2-48.7
					C8.1-48.7,8.1-48.7,8.2-48.7"/>
				<path class="st2" d="M0.5-48.7c0,0.1,0,0.1,0,0.2c-0.1,0.1-0.1,0.1-0.2,0.1c-0.1,0.1-0.1,0.3-0.1,0.4c-0.2,0.1,0,0.2,0,0.3
					c0,0,0,0.1,0,0.2c0,0.1,0,0.3,0.1,0.4c0.1,0.2,0.3,0.4,0.4,0.5C0.9-46.4,1-46,1.3-46c0.2,0,0.4-0.1,0.5-0.1c0.2,0,0.4,0,0.6-0.1
					c0.2-0.1,0.1-0.3,0.3-0.5c0.1-0.1,0.3,0,0.4-0.1c0.2-0.1,0.3-0.3,0.4-0.5c0-0.1,0-0.1,0-0.2c0-0.1,0.1-0.2,0.1-0.3
					c0-0.1-0.1-0.1-0.1-0.2c0-0.1,0-0.2,0-0.3c0-0.2,0-0.4-0.1-0.5c-0.4-0.7-1.2-0.9-2-0.8c-0.2,0-0.3,0.1-0.4,0.2
					c-0.2,0.1-0.1,0.2-0.3,0.2c-0.1,0-0.2,0.1-0.2,0.2C0.5-48.7,0.5-48.8,0.5-48.7C0.5-48.7,0.5-48.7,0.5-48.7"/>
			</g>
			<g>
				<path class="st2" d="M69.4-41c0,0.1,0,0.1,0,0.2c-0.1,0.1-0.1,0.1-0.2,0.1c-0.1,0.1-0.1,0.3-0.1,0.4c-0.2,0.1,0,0.2,0,0.3
					c0,0,0,0.1,0,0.2c0,0.1,0,0.3,0.1,0.4c0.1,0.2,0.3,0.4,0.4,0.5c0.2,0.1,0.4,0.6,0.6,0.6c0.2,0,0.4-0.1,0.5-0.1
					c0.2,0,0.4,0,0.6-0.1c0.2-0.1,0.1-0.3,0.3-0.5c0.1-0.1,0.3,0,0.4-0.1c0.2-0.1,0.3-0.3,0.4-0.5c0-0.1,0-0.1,0-0.2
					c0-0.1,0.1-0.2,0.1-0.3c0-0.1-0.1-0.1-0.1-0.2c0-0.1,0-0.2,0-0.3c0-0.2,0-0.4-0.1-0.5c-0.4-0.7-1.2-0.9-2-0.8
					c-0.2,0-0.3,0.1-0.4,0.2c-0.2,0.1-0.1,0.2-0.3,0.2c-0.1,0-0.2,0.1-0.2,0.2C69.4-41.1,69.4-41.1,69.4-41C69.4-41,69.4-41,69.4-41
					"/>
				<path class="st2" d="M61.8-41c0,0.1,0,0.1,0,0.2c-0.1,0.1-0.1,0.1-0.2,0.1c-0.1,0.1-0.1,0.3-0.1,0.4c-0.2,0.1,0,0.2,0,0.3
					c0,0,0,0.1,0,0.2c0,0.1,0,0.3,0.1,0.4c0.1,0.2,0.3,0.4,0.4,0.5c0.2,0.1,0.4,0.6,0.6,0.6c0.2,0,0.4-0.1,0.5-0.1
					c0.2,0,0.4,0,0.6-0.1c0.2-0.1,0.1-0.3,0.3-0.5c0.1-0.1,0.3,0,0.4-0.1c0.2-0.1,0.3-0.3,0.4-0.5c0-0.1,0-0.1,0-0.2
					c0-0.1,0.1-0.2,0.1-0.3c0-0.1-0.1-0.1-0.1-0.2c0-0.1,0-0.2,0-0.3c0-0.2,0-0.4-0.1-0.5c-0.4-0.7-1.2-0.9-2-0.8
					c-0.2,0-0.3,0.1-0.4,0.2c-0.2,0.1-0.1,0.2-0.3,0.2c-0.1,0-0.2,0.1-0.2,0.2C61.8-41.1,61.8-41.1,61.8-41C61.8-41,61.8-41,61.8-41
					"/>
				<path class="st2" d="M54.1-41c0,0.1,0,0.1,0,0.2c-0.1,0.1-0.1,0.1-0.2,0.1c-0.1,0.1-0.1,0.3-0.1,0.4c-0.2,0.1,0,0.2,0,0.3
					c0,0,0,0.1,0,0.2c0,0.1,0,0.3,0.1,0.4c0.1,0.2,0.3,0.4,0.4,0.5c0.2,0.1,0.4,0.6,0.6,0.6c0.2,0,0.4-0.1,0.5-0.1
					c0.2,0,0.4,0,0.6-0.1c0.2-0.1,0.1-0.3,0.3-0.5c0.1-0.1,0.3,0,0.4-0.1c0.2-0.1,0.3-0.3,0.4-0.5c0-0.1,0-0.1,0-0.2
					c0-0.1,0.1-0.2,0.1-0.3c0-0.1-0.1-0.1-0.1-0.2c0-0.1,0-0.2,0-0.3c0-0.2,0-0.4-0.1-0.5c-0.4-0.7-1.2-0.9-2-0.8
					c-0.2,0-0.3,0.1-0.4,0.2c-0.2,0.1-0.1,0.2-0.3,0.2c-0.1,0-0.2,0.1-0.2,0.2C54.1-41.1,54.1-41.1,54.1-41C54.1-41,54.1-41,54.1-41
					"/>
				<path class="st2" d="M46.5-41c0,0.1,0,0.1,0,0.2c-0.1,0.1-0.1,0.1-0.2,0.1c-0.1,0.1-0.1,0.3-0.1,0.4c-0.2,0.1,0,0.2,0,0.3
					c0,0,0,0.1,0,0.2c0,0.1,0,0.3,0.1,0.4c0.1,0.2,0.3,0.4,0.4,0.5c0.2,0.1,0.4,0.6,0.6,0.6c0.2,0,0.4-0.1,0.5-0.1
					c0.2,0,0.4,0,0.6-0.1c0.2-0.1,0.1-0.3,0.3-0.5c0.1-0.1,0.3,0,0.4-0.1c0.2-0.1,0.3-0.3,0.4-0.5c0-0.1,0-0.1,0-0.2
					c0-0.1,0.1-0.2,0.1-0.3c0-0.1-0.1-0.1-0.1-0.2c0-0.1,0-0.2,0-0.3c0-0.2,0-0.4-0.1-0.5c-0.4-0.7-1.2-0.9-2-0.8
					c-0.2,0-0.3,0.1-0.4,0.2c-0.2,0.1-0.1,0.2-0.3,0.2c-0.1,0-0.2,0.1-0.2,0.2C46.5-41.1,46.5-41.1,46.5-41C46.5-41,46.5-41,46.5-41
					"/>
				<path class="st2" d="M38.8-41c0,0.1,0,0.1,0,0.2c-0.1,0.1-0.1,0.1-0.2,0.1c-0.1,0.1-0.1,0.3-0.1,0.4c-0.2,0.1,0,0.2,0,0.3
					c0,0,0,0.1,0,0.2c0,0.1,0,0.3,0.1,0.4c0.1,0.2,0.3,0.4,0.4,0.5c0.2,0.1,0.4,0.6,0.6,0.6c0.2,0,0.4-0.1,0.5-0.1
					c0.2,0,0.4,0,0.6-0.1c0.2-0.1,0.1-0.3,0.3-0.5c0.1-0.1,0.3,0,0.4-0.1c0.2-0.1,0.3-0.3,0.4-0.5c0-0.1,0-0.1,0-0.2
					c0-0.1,0.1-0.2,0.1-0.3c0-0.1-0.1-0.1-0.1-0.2c0-0.1,0-0.2,0-0.3c0-0.2,0-0.4-0.1-0.5c-0.4-0.7-1.2-0.9-2-0.8
					c-0.2,0-0.3,0.1-0.4,0.2c-0.2,0.1-0.1,0.2-0.3,0.2c-0.1,0-0.2,0.1-0.2,0.2C38.8-41.1,38.8-41.1,38.8-41C38.8-41,38.8-41,38.8-41
					"/>
				<path class="st2" d="M31.1-41c0,0.1,0,0.1,0,0.2c-0.1,0.1-0.1,0.1-0.2,0.1c-0.1,0.1-0.1,0.3-0.1,0.4c-0.2,0.1,0,0.2,0,0.3
					c0,0,0,0.1,0,0.2c0,0.1,0,0.3,0.1,0.4c0.1,0.2,0.3,0.4,0.4,0.5c0.2,0.1,0.4,0.6,0.6,0.6c0.2,0,0.4-0.1,0.5-0.1
					c0.2,0,0.4,0,0.6-0.1c0.2-0.1,0.1-0.3,0.3-0.5c0.1-0.1,0.3,0,0.4-0.1c0.2-0.1,0.3-0.3,0.4-0.5c0-0.1,0-0.1,0-0.2
					c0-0.1,0.1-0.2,0.1-0.3c0-0.1-0.1-0.1-0.1-0.2c0-0.1,0-0.2,0-0.3c0-0.2,0-0.4-0.1-0.5c-0.4-0.7-1.2-0.9-2-0.8
					c-0.2,0-0.3,0.1-0.4,0.2c-0.2,0.1-0.1,0.2-0.3,0.2c-0.1,0-0.2,0.1-0.2,0.2C31.1-41.1,31.1-41.1,31.1-41C31.1-41,31.1-41,31.1-41
					"/>
				<path class="st2" d="M23.5-41c0,0.1,0,0.1,0,0.2c-0.1,0.1-0.1,0.1-0.2,0.1c-0.1,0.1-0.1,0.3-0.1,0.4c-0.2,0.1,0,0.2,0,0.3
					c0,0,0,0.1,0,0.2c0,0.1,0,0.3,0.1,0.4c0.1,0.2,0.3,0.4,0.4,0.5c0.2,0.1,0.4,0.6,0.6,0.6c0.2,0,0.4-0.1,0.5-0.1
					c0.2,0,0.4,0,0.6-0.1c0.2-0.1,0.1-0.3,0.3-0.5c0.1-0.1,0.3,0,0.4-0.1c0.2-0.1,0.3-0.3,0.4-0.5c0-0.1,0-0.1,0-0.2
					c0-0.1,0.1-0.2,0.1-0.3c0-0.1-0.1-0.1-0.1-0.2c0-0.1,0-0.2,0-0.3c0-0.2,0-0.4-0.1-0.5c-0.4-0.7-1.2-0.9-2-0.8
					c-0.2,0-0.3,0.1-0.4,0.2c-0.2,0.1-0.1,0.2-0.3,0.2c-0.1,0-0.2,0.1-0.2,0.2C23.5-41.1,23.5-41.1,23.5-41C23.5-41,23.5-41,23.5-41
					"/>
				<path class="st2" d="M15.8-41c0,0.1,0,0.1,0,0.2c-0.1,0.1-0.1,0.1-0.2,0.1c-0.1,0.1-0.1,0.3-0.1,0.4c-0.2,0.1,0,0.2,0,0.3
					c0,0,0,0.1,0,0.2c0,0.1,0,0.3,0.1,0.4c0.1,0.2,0.3,0.4,0.4,0.5c0.2,0.1,0.4,0.6,0.6,0.6c0.2,0,0.4-0.1,0.5-0.1
					c0.2,0,0.4,0,0.6-0.1c0.2-0.1,0.1-0.3,0.3-0.5c0.1-0.1,0.3,0,0.4-0.1c0.2-0.1,0.3-0.3,0.4-0.5c0-0.1,0-0.1,0-0.2
					c0-0.1,0.1-0.2,0.1-0.3c0-0.1-0.1-0.1-0.1-0.2c0-0.1,0-0.2,0-0.3c0-0.2,0-0.4-0.1-0.5c-0.4-0.7-1.2-0.9-2-0.8
					c-0.2,0-0.3,0.1-0.4,0.2c-0.2,0.1-0.1,0.2-0.3,0.2c-0.1,0-0.2,0.1-0.2,0.2C15.8-41.1,15.8-41.1,15.8-41C15.8-41,15.8-41,15.8-41
					"/>
				<path class="st2" d="M8.2-41c0,0.1,0,0.1,0,0.2C8.1-40.8,8-40.8,8-40.7c-0.1,0.1-0.1,0.3-0.1,0.4c-0.2,0.1,0,0.2,0,0.3
					c0,0,0,0.1,0,0.2c0,0.1,0,0.3,0.1,0.4c0.1,0.2,0.3,0.4,0.4,0.5c0.2,0.1,0.4,0.6,0.6,0.6c0.2,0,0.4-0.1,0.5-0.1
					c0.2,0,0.4,0,0.6-0.1c0.2-0.1,0.1-0.3,0.3-0.5c0.1-0.1,0.3,0,0.4-0.1c0.2-0.1,0.3-0.3,0.4-0.5c0-0.1,0-0.1,0-0.2
					c0-0.1,0.1-0.2,0.1-0.3c0-0.1-0.1-0.1-0.1-0.2c0-0.1,0-0.2,0-0.3c0-0.2,0-0.4-0.1-0.5c-0.4-0.7-1.2-0.9-2-0.8
					c-0.2,0-0.3,0.1-0.4,0.2c-0.2,0.1-0.1,0.2-0.3,0.2c-0.1,0-0.2,0.1-0.2,0.2C8.2-41.1,8.2-41.1,8.2-41C8.1-41,8.1-41,8.2-41"/>
				<path class="st2" d="M0.5-41c0,0.1,0,0.1,0,0.2c-0.1,0.1-0.1,0.1-0.2,0.1c-0.1,0.1-0.1,0.3-0.1,0.4c-0.2,0.1,0,0.2,0,0.3
					c0,0,0,0.1,0,0.2c0,0.1,0,0.3,0.1,0.4c0.1,0.2,0.3,0.4,0.4,0.5c0.2,0.1,0.4,0.6,0.6,0.6c0.2,0,0.4-0.1,0.5-0.1
					c0.2,0,0.4,0,0.6-0.1c0.2-0.1,0.1-0.3,0.3-0.5C2.8-39,3-39,3.1-39c0.2-0.1,0.3-0.3,0.4-0.5c0-0.1,0-0.1,0-0.2
					c0-0.1,0.1-0.2,0.1-0.3c0-0.1-0.1-0.1-0.1-0.2c0-0.1,0-0.2,0-0.3c0-0.2,0-0.4-0.1-0.5c-0.4-0.7-1.2-0.9-2-0.8
					c-0.2,0-0.3,0.1-0.4,0.2c-0.2,0.1-0.1,0.2-0.3,0.2c-0.1,0-0.2,0.1-0.2,0.2C0.5-41.1,0.5-41.1,0.5-41C0.5-41,0.5-41,0.5-41"/>
			</g>
			<g>
				<path class="st2" d="M69.4-33.4c0,0.1,0,0.1,0,0.2c-0.1,0.1-0.1,0.1-0.2,0.1c-0.1,0.1-0.1,0.3-0.1,0.4c-0.2,0.1,0,0.2,0,0.3
					c0,0,0,0.1,0,0.2c0,0.1,0,0.3,0.1,0.4c0.1,0.2,0.3,0.4,0.4,0.5c0.2,0.1,0.4,0.6,0.6,0.6c0.2,0,0.4-0.1,0.5-0.1
					c0.2,0,0.4,0,0.6-0.1c0.2-0.1,0.1-0.3,0.3-0.5c0.1-0.1,0.3,0,0.4-0.1c0.2-0.1,0.3-0.3,0.4-0.5c0-0.1,0-0.1,0-0.2
					c0-0.1,0.1-0.2,0.1-0.3c0-0.1-0.1-0.1-0.1-0.2c0-0.1,0-0.2,0-0.3c0-0.2,0-0.4-0.1-0.5c-0.4-0.7-1.2-0.9-2-0.8
					c-0.2,0-0.3,0.1-0.4,0.2c-0.2,0.1-0.1,0.2-0.3,0.2c-0.1,0-0.2,0.1-0.2,0.2C69.4-33.4,69.4-33.5,69.4-33.4
					C69.4-33.4,69.4-33.4,69.4-33.4"/>
				<path class="st2" d="M61.8-33.4c0,0.1,0,0.1,0,0.2c-0.1,0.1-0.1,0.1-0.2,0.1c-0.1,0.1-0.1,0.3-0.1,0.4c-0.2,0.1,0,0.2,0,0.3
					c0,0,0,0.1,0,0.2c0,0.1,0,0.3,0.1,0.4c0.1,0.2,0.3,0.4,0.4,0.5c0.2,0.1,0.4,0.6,0.6,0.6c0.2,0,0.4-0.1,0.5-0.1
					c0.2,0,0.4,0,0.6-0.1c0.2-0.1,0.1-0.3,0.3-0.5c0.1-0.1,0.3,0,0.4-0.1c0.2-0.1,0.3-0.3,0.4-0.5c0-0.1,0-0.1,0-0.2
					c0-0.1,0.1-0.2,0.1-0.3c0-0.1-0.1-0.1-0.1-0.2c0-0.1,0-0.2,0-0.3c0-0.2,0-0.4-0.1-0.5c-0.4-0.7-1.2-0.9-2-0.8
					c-0.2,0-0.3,0.1-0.4,0.2c-0.2,0.1-0.1,0.2-0.3,0.2c-0.1,0-0.2,0.1-0.2,0.2C61.8-33.4,61.8-33.5,61.8-33.4
					C61.8-33.4,61.8-33.4,61.8-33.4"/>
				<path class="st2" d="M54.1-33.4c0,0.1,0,0.1,0,0.2c-0.1,0.1-0.1,0.1-0.2,0.1c-0.1,0.1-0.1,0.3-0.1,0.4c-0.2,0.1,0,0.2,0,0.3
					c0,0,0,0.1,0,0.2c0,0.1,0,0.3,0.1,0.4c0.1,0.2,0.3,0.4,0.4,0.5c0.2,0.1,0.4,0.6,0.6,0.6c0.2,0,0.4-0.1,0.5-0.1
					c0.2,0,0.4,0,0.6-0.1c0.2-0.1,0.1-0.3,0.3-0.5c0.1-0.1,0.3,0,0.4-0.1c0.2-0.1,0.3-0.3,0.4-0.5c0-0.1,0-0.1,0-0.2
					c0-0.1,0.1-0.2,0.1-0.3c0-0.1-0.1-0.1-0.1-0.2c0-0.1,0-0.2,0-0.3c0-0.2,0-0.4-0.1-0.5c-0.4-0.7-1.2-0.9-2-0.8
					c-0.2,0-0.3,0.1-0.4,0.2c-0.2,0.1-0.1,0.2-0.3,0.2c-0.1,0-0.2,0.1-0.2,0.2C54.1-33.4,54.1-33.5,54.1-33.4
					C54.1-33.4,54.1-33.4,54.1-33.4"/>
				<path class="st2" d="M46.5-33.4c0,0.1,0,0.1,0,0.2c-0.1,0.1-0.1,0.1-0.2,0.1c-0.1,0.1-0.1,0.3-0.1,0.4c-0.2,0.1,0,0.2,0,0.3
					c0,0,0,0.1,0,0.2c0,0.1,0,0.3,0.1,0.4c0.1,0.2,0.3,0.4,0.4,0.5c0.2,0.1,0.4,0.6,0.6,0.6c0.2,0,0.4-0.1,0.5-0.1
					c0.2,0,0.4,0,0.6-0.1c0.2-0.1,0.1-0.3,0.3-0.5c0.1-0.1,0.3,0,0.4-0.1c0.2-0.1,0.3-0.3,0.4-0.5c0-0.1,0-0.1,0-0.2
					c0-0.1,0.1-0.2,0.1-0.3c0-0.1-0.1-0.1-0.1-0.2c0-0.1,0-0.2,0-0.3c0-0.2,0-0.4-0.1-0.5c-0.4-0.7-1.2-0.9-2-0.8
					c-0.2,0-0.3,0.1-0.4,0.2c-0.2,0.1-0.1,0.2-0.3,0.2c-0.1,0-0.2,0.1-0.2,0.2C46.5-33.4,46.5-33.5,46.5-33.4
					C46.5-33.4,46.5-33.4,46.5-33.4"/>
				<path class="st2" d="M38.8-33.4c0,0.1,0,0.1,0,0.2c-0.1,0.1-0.1,0.1-0.2,0.1c-0.1,0.1-0.1,0.3-0.1,0.4c-0.2,0.1,0,0.2,0,0.3
					c0,0,0,0.1,0,0.2c0,0.1,0,0.3,0.1,0.4c0.1,0.2,0.3,0.4,0.4,0.5c0.2,0.1,0.4,0.6,0.6,0.6c0.2,0,0.4-0.1,0.5-0.1
					c0.2,0,0.4,0,0.6-0.1c0.2-0.1,0.1-0.3,0.3-0.5c0.1-0.1,0.3,0,0.4-0.1c0.2-0.1,0.3-0.3,0.4-0.5c0-0.1,0-0.1,0-0.2
					c0-0.1,0.1-0.2,0.1-0.3c0-0.1-0.1-0.1-0.1-0.2c0-0.1,0-0.2,0-0.3c0-0.2,0-0.4-0.1-0.5c-0.4-0.7-1.2-0.9-2-0.8
					c-0.2,0-0.3,0.1-0.4,0.2c-0.2,0.1-0.1,0.2-0.3,0.2c-0.1,0-0.2,0.1-0.2,0.2C38.8-33.4,38.8-33.5,38.8-33.4
					C38.8-33.4,38.8-33.4,38.8-33.4"/>
				<path class="st2" d="M31.1-33.4c0,0.1,0,0.1,0,0.2c-0.1,0.1-0.1,0.1-0.2,0.1c-0.1,0.1-0.1,0.3-0.1,0.4c-0.2,0.1,0,0.2,0,0.3
					c0,0,0,0.1,0,0.2c0,0.1,0,0.3,0.1,0.4c0.1,0.2,0.3,0.4,0.4,0.5c0.2,0.1,0.4,0.6,0.6,0.6c0.2,0,0.4-0.1,0.5-0.1
					c0.2,0,0.4,0,0.6-0.1c0.2-0.1,0.1-0.3,0.3-0.5c0.1-0.1,0.3,0,0.4-0.1c0.2-0.1,0.3-0.3,0.4-0.5c0-0.1,0-0.1,0-0.2
					c0-0.1,0.1-0.2,0.1-0.3c0-0.1-0.1-0.1-0.1-0.2c0-0.1,0-0.2,0-0.3c0-0.2,0-0.4-0.1-0.5c-0.4-0.7-1.2-0.9-2-0.8
					c-0.2,0-0.3,0.1-0.4,0.2c-0.2,0.1-0.1,0.2-0.3,0.2c-0.1,0-0.2,0.1-0.2,0.2C31.1-33.4,31.1-33.5,31.1-33.4
					C31.1-33.4,31.1-33.4,31.1-33.4"/>
				<path class="st2" d="M23.5-33.4c0,0.1,0,0.1,0,0.2c-0.1,0.1-0.1,0.1-0.2,0.1c-0.1,0.1-0.1,0.3-0.1,0.4c-0.2,0.1,0,0.2,0,0.3
					c0,0,0,0.1,0,0.2c0,0.1,0,0.3,0.1,0.4c0.1,0.2,0.3,0.4,0.4,0.5c0.2,0.1,0.4,0.6,0.6,0.6c0.2,0,0.4-0.1,0.5-0.1
					c0.2,0,0.4,0,0.6-0.1c0.2-0.1,0.1-0.3,0.3-0.5c0.1-0.1,0.3,0,0.4-0.1c0.2-0.1,0.3-0.3,0.4-0.5c0-0.1,0-0.1,0-0.2
					c0-0.1,0.1-0.2,0.1-0.3c0-0.1-0.1-0.1-0.1-0.2c0-0.1,0-0.2,0-0.3c0-0.2,0-0.4-0.1-0.5c-0.4-0.7-1.2-0.9-2-0.8
					c-0.2,0-0.3,0.1-0.4,0.2c-0.2,0.1-0.1,0.2-0.3,0.2c-0.1,0-0.2,0.1-0.2,0.2C23.5-33.4,23.5-33.5,23.5-33.4
					C23.5-33.4,23.5-33.4,23.5-33.4"/>
				<path class="st2" d="M15.8-33.4c0,0.1,0,0.1,0,0.2c-0.1,0.1-0.1,0.1-0.2,0.1c-0.1,0.1-0.1,0.3-0.1,0.4c-0.2,0.1,0,0.2,0,0.3
					c0,0,0,0.1,0,0.2c0,0.1,0,0.3,0.1,0.4c0.1,0.2,0.3,0.4,0.4,0.5c0.2,0.1,0.4,0.6,0.6,0.6c0.2,0,0.4-0.1,0.5-0.1
					c0.2,0,0.4,0,0.6-0.1c0.2-0.1,0.1-0.3,0.3-0.5c0.1-0.1,0.3,0,0.4-0.1c0.2-0.1,0.3-0.3,0.4-0.5c0-0.1,0-0.1,0-0.2
					c0-0.1,0.1-0.2,0.1-0.3c0-0.1-0.1-0.1-0.1-0.2c0-0.1,0-0.2,0-0.3c0-0.2,0-0.4-0.1-0.5c-0.4-0.7-1.2-0.9-2-0.8
					c-0.2,0-0.3,0.1-0.4,0.2c-0.2,0.1-0.1,0.2-0.3,0.2c-0.1,0-0.2,0.1-0.2,0.2C15.8-33.4,15.8-33.5,15.8-33.4
					C15.8-33.4,15.8-33.4,15.8-33.4"/>
				<path class="st2" d="M8.2-33.4c0,0.1,0,0.1,0,0.2C8.1-33.1,8-33.1,8-33.1c-0.1,0.1-0.1,0.3-0.1,0.4c-0.2,0.1,0,0.2,0,0.3
					c0,0,0,0.1,0,0.2c0,0.1,0,0.3,0.1,0.4c0.1,0.2,0.3,0.4,0.4,0.5c0.2,0.1,0.4,0.6,0.6,0.6c0.2,0,0.4-0.1,0.5-0.1
					c0.2,0,0.4,0,0.6-0.1c0.2-0.1,0.1-0.3,0.3-0.5c0.1-0.1,0.3,0,0.4-0.1c0.2-0.1,0.3-0.3,0.4-0.5c0-0.1,0-0.1,0-0.2
					c0-0.1,0.1-0.2,0.1-0.3c0-0.1-0.1-0.1-0.1-0.2c0-0.1,0-0.2,0-0.3c0-0.2,0-0.4-0.1-0.5c-0.4-0.7-1.2-0.9-2-0.8
					c-0.2,0-0.3,0.1-0.4,0.2c-0.2,0.1-0.1,0.2-0.3,0.2c-0.1,0-0.2,0.1-0.2,0.2C8.2-33.4,8.2-33.5,8.2-33.4
					C8.1-33.4,8.1-33.4,8.2-33.4"/>
				<path class="st2" d="M0.5-33.4c0,0.1,0,0.1,0,0.2c-0.1,0.1-0.1,0.1-0.2,0.1c-0.1,0.1-0.1,0.3-0.1,0.4c-0.2,0.1,0,0.2,0,0.3
					c0,0,0,0.1,0,0.2c0,0.1,0,0.3,0.1,0.4c0.1,0.2,0.3,0.4,0.4,0.5c0.2,0.1,0.4,0.6,0.6,0.6c0.2,0,0.4-0.1,0.5-0.1
					c0.2,0,0.4,0,0.6-0.1c0.2-0.1,0.1-0.3,0.3-0.5c0.1-0.1,0.3,0,0.4-0.1c0.2-0.1,0.3-0.3,0.4-0.5c0-0.1,0-0.1,0-0.2
					c0-0.1,0.1-0.2,0.1-0.3c0-0.1-0.1-0.1-0.1-0.2c0-0.1,0-0.2,0-0.3c0-0.2,0-0.4-0.1-0.5c-0.4-0.7-1.2-0.9-2-0.8
					c-0.2,0-0.3,0.1-0.4,0.2c-0.2,0.1-0.1,0.2-0.3,0.2c-0.1,0-0.2,0.1-0.2,0.2C0.5-33.4,0.5-33.5,0.5-33.4
					C0.5-33.4,0.5-33.4,0.5-33.4"/>
			</g>
			<g>
				<path class="st2" d="M69.4-25.7c0,0.1,0,0.1,0,0.2c-0.1,0.1-0.1,0.1-0.2,0.1c-0.1,0.1-0.1,0.3-0.1,0.4c-0.2,0.1,0,0.2,0,0.3
					c0,0,0,0.1,0,0.2c0,0.1,0,0.3,0.1,0.4c0.1,0.2,0.3,0.4,0.4,0.5c0.2,0.1,0.4,0.6,0.6,0.6c0.2,0,0.4-0.1,0.5-0.1
					c0.2,0,0.4,0,0.6-0.1c0.2-0.1,0.1-0.3,0.3-0.5c0.1-0.1,0.3,0,0.4-0.1c0.2-0.1,0.3-0.3,0.4-0.5c0-0.1,0-0.1,0-0.2
					c0-0.1,0.1-0.2,0.1-0.3c0-0.1-0.1-0.1-0.1-0.2c0-0.1,0-0.2,0-0.3c0-0.2,0-0.4-0.1-0.5c-0.4-0.7-1.2-0.9-2-0.8
					c-0.2,0-0.3,0.1-0.4,0.2c-0.2,0.1-0.1,0.2-0.3,0.2c-0.1,0-0.2,0.1-0.2,0.2C69.4-25.8,69.4-25.8,69.4-25.7
					C69.4-25.7,69.4-25.7,69.4-25.7"/>
				<path class="st2" d="M61.8-25.7c0,0.1,0,0.1,0,0.2c-0.1,0.1-0.1,0.1-0.2,0.1c-0.1,0.1-0.1,0.3-0.1,0.4c-0.2,0.1,0,0.2,0,0.3
					c0,0,0,0.1,0,0.2c0,0.1,0,0.3,0.1,0.4c0.1,0.2,0.3,0.4,0.4,0.5c0.2,0.1,0.4,0.6,0.6,0.6c0.2,0,0.4-0.1,0.5-0.1
					c0.2,0,0.4,0,0.6-0.1c0.2-0.1,0.1-0.3,0.3-0.5c0.1-0.1,0.3,0,0.4-0.1c0.2-0.1,0.3-0.3,0.4-0.5c0-0.1,0-0.1,0-0.2
					c0-0.1,0.1-0.2,0.1-0.3c0-0.1-0.1-0.1-0.1-0.2c0-0.1,0-0.2,0-0.3c0-0.2,0-0.4-0.1-0.5c-0.4-0.7-1.2-0.9-2-0.8
					c-0.2,0-0.3,0.1-0.4,0.2c-0.2,0.1-0.1,0.2-0.3,0.2c-0.1,0-0.2,0.1-0.2,0.2C61.8-25.8,61.8-25.8,61.8-25.7
					C61.8-25.7,61.8-25.7,61.8-25.7"/>
				<path class="st2" d="M54.1-25.7c0,0.1,0,0.1,0,0.2c-0.1,0.1-0.1,0.1-0.2,0.1c-0.1,0.1-0.1,0.3-0.1,0.4c-0.2,0.1,0,0.2,0,0.3
					c0,0,0,0.1,0,0.2c0,0.1,0,0.3,0.1,0.4c0.1,0.2,0.3,0.4,0.4,0.5c0.2,0.1,0.4,0.6,0.6,0.6c0.2,0,0.4-0.1,0.5-0.1
					c0.2,0,0.4,0,0.6-0.1c0.2-0.1,0.1-0.3,0.3-0.5c0.1-0.1,0.3,0,0.4-0.1c0.2-0.1,0.3-0.3,0.4-0.5c0-0.1,0-0.1,0-0.2
					c0-0.1,0.1-0.2,0.1-0.3c0-0.1-0.1-0.1-0.1-0.2c0-0.1,0-0.2,0-0.3c0-0.2,0-0.4-0.1-0.5c-0.4-0.7-1.2-0.9-2-0.8
					c-0.2,0-0.3,0.1-0.4,0.2c-0.2,0.1-0.1,0.2-0.3,0.2c-0.1,0-0.2,0.1-0.2,0.2C54.1-25.8,54.1-25.8,54.1-25.7
					C54.1-25.7,54.1-25.7,54.1-25.7"/>
				<path class="st2" d="M46.5-25.7c0,0.1,0,0.1,0,0.2c-0.1,0.1-0.1,0.1-0.2,0.1c-0.1,0.1-0.1,0.3-0.1,0.4c-0.2,0.1,0,0.2,0,0.3
					c0,0,0,0.1,0,0.2c0,0.1,0,0.3,0.1,0.4c0.1,0.2,0.3,0.4,0.4,0.5c0.2,0.1,0.4,0.6,0.6,0.6c0.2,0,0.4-0.1,0.5-0.1
					c0.2,0,0.4,0,0.6-0.1c0.2-0.1,0.1-0.3,0.3-0.5c0.1-0.1,0.3,0,0.4-0.1c0.2-0.1,0.3-0.3,0.4-0.5c0-0.1,0-0.1,0-0.2
					c0-0.1,0.1-0.2,0.1-0.3c0-0.1-0.1-0.1-0.1-0.2c0-0.1,0-0.2,0-0.3c0-0.2,0-0.4-0.1-0.5c-0.4-0.7-1.2-0.9-2-0.8
					c-0.2,0-0.3,0.1-0.4,0.2c-0.2,0.1-0.1,0.2-0.3,0.2c-0.1,0-0.2,0.1-0.2,0.2C46.5-25.8,46.5-25.8,46.5-25.7
					C46.5-25.7,46.5-25.7,46.5-25.7"/>
				<path class="st2" d="M38.8-25.7c0,0.1,0,0.1,0,0.2c-0.1,0.1-0.1,0.1-0.2,0.1c-0.1,0.1-0.1,0.3-0.1,0.4c-0.2,0.1,0,0.2,0,0.3
					c0,0,0,0.1,0,0.2c0,0.1,0,0.3,0.1,0.4c0.1,0.2,0.3,0.4,0.4,0.5c0.2,0.1,0.4,0.6,0.6,0.6c0.2,0,0.4-0.1,0.5-0.1
					c0.2,0,0.4,0,0.6-0.1c0.2-0.1,0.1-0.3,0.3-0.5c0.1-0.1,0.3,0,0.4-0.1c0.2-0.1,0.3-0.3,0.4-0.5c0-0.1,0-0.1,0-0.2
					c0-0.1,0.1-0.2,0.1-0.3c0-0.1-0.1-0.1-0.1-0.2c0-0.1,0-0.2,0-0.3c0-0.2,0-0.4-0.1-0.5c-0.4-0.7-1.2-0.9-2-0.8
					c-0.2,0-0.3,0.1-0.4,0.2c-0.2,0.1-0.1,0.2-0.3,0.2c-0.1,0-0.2,0.1-0.2,0.2C38.8-25.8,38.8-25.8,38.8-25.7
					C38.8-25.7,38.8-25.7,38.8-25.7"/>
				<path class="st2" d="M31.1-25.7c0,0.1,0,0.1,0,0.2c-0.1,0.1-0.1,0.1-0.2,0.1c-0.1,0.1-0.1,0.3-0.1,0.4c-0.2,0.1,0,0.2,0,0.3
					c0,0,0,0.1,0,0.2c0,0.1,0,0.3,0.1,0.4c0.1,0.2,0.3,0.4,0.4,0.5c0.2,0.1,0.4,0.6,0.6,0.6c0.2,0,0.4-0.1,0.5-0.1
					c0.2,0,0.4,0,0.6-0.1c0.2-0.1,0.1-0.3,0.3-0.5c0.1-0.1,0.3,0,0.4-0.1c0.2-0.1,0.3-0.3,0.4-0.5c0-0.1,0-0.1,0-0.2
					c0-0.1,0.1-0.2,0.1-0.3c0-0.1-0.1-0.1-0.1-0.2c0-0.1,0-0.2,0-0.3c0-0.2,0-0.4-0.1-0.5c-0.4-0.7-1.2-0.9-2-0.8
					c-0.2,0-0.3,0.1-0.4,0.2c-0.2,0.1-0.1,0.2-0.3,0.2c-0.1,0-0.2,0.1-0.2,0.2C31.1-25.8,31.1-25.8,31.1-25.7
					C31.1-25.7,31.1-25.7,31.1-25.7"/>
				<path class="st2" d="M23.5-25.7c0,0.1,0,0.1,0,0.2c-0.1,0.1-0.1,0.1-0.2,0.1c-0.1,0.1-0.1,0.3-0.1,0.4c-0.2,0.1,0,0.2,0,0.3
					c0,0,0,0.1,0,0.2c0,0.1,0,0.3,0.1,0.4c0.1,0.2,0.3,0.4,0.4,0.5c0.2,0.1,0.4,0.6,0.6,0.6c0.2,0,0.4-0.1,0.5-0.1
					c0.2,0,0.4,0,0.6-0.1c0.2-0.1,0.1-0.3,0.3-0.5c0.1-0.1,0.3,0,0.4-0.1c0.2-0.1,0.3-0.3,0.4-0.5c0-0.1,0-0.1,0-0.2
					c0-0.1,0.1-0.2,0.1-0.3c0-0.1-0.1-0.1-0.1-0.2c0-0.1,0-0.2,0-0.3c0-0.2,0-0.4-0.1-0.5c-0.4-0.7-1.2-0.9-2-0.8
					c-0.2,0-0.3,0.1-0.4,0.2c-0.2,0.1-0.1,0.2-0.3,0.2c-0.1,0-0.2,0.1-0.2,0.2C23.5-25.8,23.5-25.8,23.5-25.7
					C23.5-25.7,23.5-25.7,23.5-25.7"/>
				<path class="st2" d="M15.8-25.7c0,0.1,0,0.1,0,0.2c-0.1,0.1-0.1,0.1-0.2,0.1c-0.1,0.1-0.1,0.3-0.1,0.4c-0.2,0.1,0,0.2,0,0.3
					c0,0,0,0.1,0,0.2c0,0.1,0,0.3,0.1,0.4c0.1,0.2,0.3,0.4,0.4,0.5c0.2,0.1,0.4,0.6,0.6,0.6c0.2,0,0.4-0.1,0.5-0.1
					c0.2,0,0.4,0,0.6-0.1c0.2-0.1,0.1-0.3,0.3-0.5c0.1-0.1,0.3,0,0.4-0.1c0.2-0.1,0.3-0.3,0.4-0.5c0-0.1,0-0.1,0-0.2
					c0-0.1,0.1-0.2,0.1-0.3c0-0.1-0.1-0.1-0.1-0.2c0-0.1,0-0.2,0-0.3c0-0.2,0-0.4-0.1-0.5c-0.4-0.7-1.2-0.9-2-0.8
					c-0.2,0-0.3,0.1-0.4,0.2c-0.2,0.1-0.1,0.2-0.3,0.2c-0.1,0-0.2,0.1-0.2,0.2C15.8-25.8,15.8-25.8,15.8-25.7
					C15.8-25.7,15.8-25.7,15.8-25.7"/>
				<path class="st2" d="M8.2-25.7c0,0.1,0,0.1,0,0.2C8.1-25.4,8-25.5,8-25.4c-0.1,0.1-0.1,0.3-0.1,0.4c-0.2,0.1,0,0.2,0,0.3
					c0,0,0,0.1,0,0.2c0,0.1,0,0.3,0.1,0.4C8-24,8.2-23.8,8.3-23.6c0.2,0.1,0.4,0.6,0.6,0.6c0.2,0,0.4-0.1,0.5-0.1
					c0.2,0,0.4,0,0.6-0.1c0.2-0.1,0.1-0.3,0.3-0.5c0.1-0.1,0.3,0,0.4-0.1c0.2-0.1,0.3-0.3,0.4-0.5c0-0.1,0-0.1,0-0.2
					c0-0.1,0.1-0.2,0.1-0.3c0-0.1-0.1-0.1-0.1-0.2c0-0.1,0-0.2,0-0.3c0-0.2,0-0.4-0.1-0.5c-0.4-0.7-1.2-0.9-2-0.8
					c-0.2,0-0.3,0.1-0.4,0.2c-0.2,0.1-0.1,0.2-0.3,0.2c-0.1,0-0.2,0.1-0.2,0.2C8.2-25.8,8.2-25.8,8.2-25.7
					C8.1-25.7,8.1-25.7,8.2-25.7"/>
				<path class="st2" d="M0.5-25.7c0,0.1,0,0.1,0,0.2c-0.1,0.1-0.1,0.1-0.2,0.1c-0.1,0.1-0.1,0.3-0.1,0.4c-0.2,0.1,0,0.2,0,0.3
					c0,0,0,0.1,0,0.2c0,0.1,0,0.3,0.1,0.4c0.1,0.2,0.3,0.4,0.4,0.5C0.9-23.5,1-23.1,1.3-23c0.2,0,0.4-0.1,0.5-0.1
					c0.2,0,0.4,0,0.6-0.1c0.2-0.1,0.1-0.3,0.3-0.5c0.1-0.1,0.3,0,0.4-0.1c0.2-0.1,0.3-0.3,0.4-0.5c0-0.1,0-0.1,0-0.2
					c0-0.1,0.1-0.2,0.1-0.3c0-0.1-0.1-0.1-0.1-0.2c0-0.1,0-0.2,0-0.3c0-0.2,0-0.4-0.1-0.5c-0.4-0.7-1.2-0.9-2-0.8
					c-0.2,0-0.3,0.1-0.4,0.2c-0.2,0.1-0.1,0.2-0.3,0.2c-0.1,0-0.2,0.1-0.2,0.2C0.5-25.8,0.5-25.8,0.5-25.7
					C0.5-25.7,0.5-25.7,0.5-25.7"/>
			</g>
			<g>
				<path class="st2" d="M69.4-18.1c0,0.1,0,0.1,0,0.2c-0.1,0.1-0.1,0.1-0.2,0.1c-0.1,0.1-0.1,0.3-0.1,0.4c-0.2,0.1,0,0.2,0,0.3
					c0,0,0,0.1,0,0.2c0,0.1,0,0.3,0.1,0.4c0.1,0.2,0.3,0.4,0.4,0.5c0.2,0.1,0.4,0.6,0.6,0.6c0.2,0,0.4-0.1,0.5-0.1
					c0.2,0,0.4,0,0.6-0.1c0.2-0.1,0.1-0.3,0.3-0.5c0.1-0.1,0.3,0,0.4-0.1c0.2-0.1,0.3-0.3,0.4-0.5c0-0.1,0-0.1,0-0.2
					c0-0.1,0.1-0.2,0.1-0.3c0-0.1-0.1-0.1-0.1-0.2c0-0.1,0-0.2,0-0.3c0-0.2,0-0.4-0.1-0.5c-0.4-0.7-1.2-0.9-2-0.8
					c-0.2,0-0.3,0.1-0.4,0.2c-0.2,0.1-0.1,0.2-0.3,0.2c-0.1,0-0.2,0.1-0.2,0.2C69.4-18.1,69.4-18.2,69.4-18.1
					C69.4-18,69.4-18.1,69.4-18.1"/>
				<path class="st2" d="M61.8-18.1c0,0.1,0,0.1,0,0.2c-0.1,0.1-0.1,0.1-0.2,0.1c-0.1,0.1-0.1,0.3-0.1,0.4c-0.2,0.1,0,0.2,0,0.3
					c0,0,0,0.1,0,0.2c0,0.1,0,0.3,0.1,0.4c0.1,0.2,0.3,0.4,0.4,0.5c0.2,0.1,0.4,0.6,0.6,0.6c0.2,0,0.4-0.1,0.5-0.1
					c0.2,0,0.4,0,0.6-0.1c0.2-0.1,0.1-0.3,0.3-0.5c0.1-0.1,0.3,0,0.4-0.1c0.2-0.1,0.3-0.3,0.4-0.5c0-0.1,0-0.1,0-0.2
					c0-0.1,0.1-0.2,0.1-0.3c0-0.1-0.1-0.1-0.1-0.2c0-0.1,0-0.2,0-0.3c0-0.2,0-0.4-0.1-0.5c-0.4-0.7-1.2-0.9-2-0.8
					c-0.2,0-0.3,0.1-0.4,0.2c-0.2,0.1-0.1,0.2-0.3,0.2c-0.1,0-0.2,0.1-0.2,0.2C61.8-18.1,61.8-18.2,61.8-18.1
					C61.8-18,61.8-18.1,61.8-18.1"/>
				<path class="st2" d="M54.1-18.1c0,0.1,0,0.1,0,0.2c-0.1,0.1-0.1,0.1-0.2,0.1c-0.1,0.1-0.1,0.3-0.1,0.4c-0.2,0.1,0,0.2,0,0.3
					c0,0,0,0.1,0,0.2c0,0.1,0,0.3,0.1,0.4c0.1,0.2,0.3,0.4,0.4,0.5c0.2,0.1,0.4,0.6,0.6,0.6c0.2,0,0.4-0.1,0.5-0.1
					c0.2,0,0.4,0,0.6-0.1c0.2-0.1,0.1-0.3,0.3-0.5c0.1-0.1,0.3,0,0.4-0.1c0.2-0.1,0.3-0.3,0.4-0.5c0-0.1,0-0.1,0-0.2
					c0-0.1,0.1-0.2,0.1-0.3c0-0.1-0.1-0.1-0.1-0.2c0-0.1,0-0.2,0-0.3c0-0.2,0-0.4-0.1-0.5c-0.4-0.7-1.2-0.9-2-0.8
					c-0.2,0-0.3,0.1-0.4,0.2c-0.2,0.1-0.1,0.2-0.3,0.2c-0.1,0-0.2,0.1-0.2,0.2C54.1-18.1,54.1-18.2,54.1-18.1
					C54.1-18,54.1-18.1,54.1-18.1"/>
				<path class="st2" d="M46.5-18.1c0,0.1,0,0.1,0,0.2c-0.1,0.1-0.1,0.1-0.2,0.1c-0.1,0.1-0.1,0.3-0.1,0.4c-0.2,0.1,0,0.2,0,0.3
					c0,0,0,0.1,0,0.2c0,0.1,0,0.3,0.1,0.4c0.1,0.2,0.3,0.4,0.4,0.5c0.2,0.1,0.4,0.6,0.6,0.6c0.2,0,0.4-0.1,0.5-0.1
					c0.2,0,0.4,0,0.6-0.1c0.2-0.1,0.1-0.3,0.3-0.5c0.1-0.1,0.3,0,0.4-0.1c0.2-0.1,0.3-0.3,0.4-0.5c0-0.1,0-0.1,0-0.2
					c0-0.1,0.1-0.2,0.1-0.3c0-0.1-0.1-0.1-0.1-0.2c0-0.1,0-0.2,0-0.3c0-0.2,0-0.4-0.1-0.5c-0.4-0.7-1.2-0.9-2-0.8
					c-0.2,0-0.3,0.1-0.4,0.2c-0.2,0.1-0.1,0.2-0.3,0.2c-0.1,0-0.2,0.1-0.2,0.2C46.5-18.1,46.5-18.2,46.5-18.1
					C46.5-18,46.5-18.1,46.5-18.1"/>
				<path class="st2" d="M38.8-18.1c0,0.1,0,0.1,0,0.2c-0.1,0.1-0.1,0.1-0.2,0.1c-0.1,0.1-0.1,0.3-0.1,0.4c-0.2,0.1,0,0.2,0,0.3
					c0,0,0,0.1,0,0.2c0,0.1,0,0.3,0.1,0.4c0.1,0.2,0.3,0.4,0.4,0.5c0.2,0.1,0.4,0.6,0.6,0.6c0.2,0,0.4-0.1,0.5-0.1
					c0.2,0,0.4,0,0.6-0.1c0.2-0.1,0.1-0.3,0.3-0.5c0.1-0.1,0.3,0,0.4-0.1c0.2-0.1,0.3-0.3,0.4-0.5c0-0.1,0-0.1,0-0.2
					c0-0.1,0.1-0.2,0.1-0.3c0-0.1-0.1-0.1-0.1-0.2c0-0.1,0-0.2,0-0.3c0-0.2,0-0.4-0.1-0.5c-0.4-0.7-1.2-0.9-2-0.8
					c-0.2,0-0.3,0.1-0.4,0.2c-0.2,0.1-0.1,0.2-0.3,0.2c-0.1,0-0.2,0.1-0.2,0.2C38.8-18.1,38.8-18.2,38.8-18.1
					C38.8-18,38.8-18.1,38.8-18.1"/>
				<path class="st2" d="M31.1-18.1c0,0.1,0,0.1,0,0.2c-0.1,0.1-0.1,0.1-0.2,0.1c-0.1,0.1-0.1,0.3-0.1,0.4c-0.2,0.1,0,0.2,0,0.3
					c0,0,0,0.1,0,0.2c0,0.1,0,0.3,0.1,0.4c0.1,0.2,0.3,0.4,0.4,0.5c0.2,0.1,0.4,0.6,0.6,0.6c0.2,0,0.4-0.1,0.5-0.1
					c0.2,0,0.4,0,0.6-0.1c0.2-0.1,0.1-0.3,0.3-0.5c0.1-0.1,0.3,0,0.4-0.1c0.2-0.1,0.3-0.3,0.4-0.5c0-0.1,0-0.1,0-0.2
					c0-0.1,0.1-0.2,0.1-0.3c0-0.1-0.1-0.1-0.1-0.2c0-0.1,0-0.2,0-0.3c0-0.2,0-0.4-0.1-0.5c-0.4-0.7-1.2-0.9-2-0.8
					c-0.2,0-0.3,0.1-0.4,0.2c-0.2,0.1-0.1,0.2-0.3,0.2c-0.1,0-0.2,0.1-0.2,0.2C31.1-18.1,31.1-18.2,31.1-18.1
					C31.1-18,31.1-18.1,31.1-18.1"/>
				<path class="st2" d="M23.5-18.1c0,0.1,0,0.1,0,0.2c-0.1,0.1-0.1,0.1-0.2,0.1c-0.1,0.1-0.1,0.3-0.1,0.4c-0.2,0.1,0,0.2,0,0.3
					c0,0,0,0.1,0,0.2c0,0.1,0,0.3,0.1,0.4c0.1,0.2,0.3,0.4,0.4,0.5c0.2,0.1,0.4,0.6,0.6,0.6c0.2,0,0.4-0.1,0.5-0.1
					c0.2,0,0.4,0,0.6-0.1c0.2-0.1,0.1-0.3,0.3-0.5c0.1-0.1,0.3,0,0.4-0.1c0.2-0.1,0.3-0.3,0.4-0.5c0-0.1,0-0.1,0-0.2
					c0-0.1,0.1-0.2,0.1-0.3c0-0.1-0.1-0.1-0.1-0.2c0-0.1,0-0.2,0-0.3c0-0.2,0-0.4-0.1-0.5c-0.4-0.7-1.2-0.9-2-0.8
					c-0.2,0-0.3,0.1-0.4,0.2c-0.2,0.1-0.1,0.2-0.3,0.2c-0.1,0-0.2,0.1-0.2,0.2C23.5-18.1,23.5-18.2,23.5-18.1
					C23.5-18,23.5-18.1,23.5-18.1"/>
				<path class="st2" d="M15.8-18.1c0,0.1,0,0.1,0,0.2c-0.1,0.1-0.1,0.1-0.2,0.1c-0.1,0.1-0.1,0.3-0.1,0.4c-0.2,0.1,0,0.2,0,0.3
					c0,0,0,0.1,0,0.2c0,0.1,0,0.3,0.1,0.4c0.1,0.2,0.3,0.4,0.4,0.5c0.2,0.1,0.4,0.6,0.6,0.6c0.2,0,0.4-0.1,0.5-0.1
					c0.2,0,0.4,0,0.6-0.1c0.2-0.1,0.1-0.3,0.3-0.5c0.1-0.1,0.3,0,0.4-0.1c0.2-0.1,0.3-0.3,0.4-0.5c0-0.1,0-0.1,0-0.2
					c0-0.1,0.1-0.2,0.1-0.3c0-0.1-0.1-0.1-0.1-0.2c0-0.1,0-0.2,0-0.3c0-0.2,0-0.4-0.1-0.5c-0.4-0.7-1.2-0.9-2-0.8
					c-0.2,0-0.3,0.1-0.4,0.2c-0.2,0.1-0.1,0.2-0.3,0.2c-0.1,0-0.2,0.1-0.2,0.2C15.8-18.1,15.8-18.2,15.8-18.1
					C15.8-18,15.8-18.1,15.8-18.1"/>
				<path class="st2" d="M8.2-18.1c0,0.1,0,0.1,0,0.2C8.1-17.8,8-17.8,8-17.8c-0.1,0.1-0.1,0.3-0.1,0.4c-0.2,0.1,0,0.2,0,0.3
					c0,0,0,0.1,0,0.2c0,0.1,0,0.3,0.1,0.4C8-16.3,8.2-16.1,8.3-16c0.2,0.1,0.4,0.6,0.6,0.6c0.2,0,0.4-0.1,0.5-0.1
					c0.2,0,0.4,0,0.6-0.1c0.2-0.1,0.1-0.3,0.3-0.5c0.1-0.1,0.3,0,0.4-0.1c0.2-0.1,0.3-0.3,0.4-0.5c0-0.1,0-0.1,0-0.2
					c0-0.1,0.1-0.2,0.1-0.3c0-0.1-0.1-0.1-0.1-0.2c0-0.1,0-0.2,0-0.3c0-0.2,0-0.4-0.1-0.5c-0.4-0.7-1.2-0.9-2-0.8
					c-0.2,0-0.3,0.1-0.4,0.2c-0.2,0.1-0.1,0.2-0.3,0.2c-0.1,0-0.2,0.1-0.2,0.2C8.2-18.1,8.2-18.2,8.2-18.1C8.1-18,8.1-18.1,8.2-18.1
					"/>
				<path class="st2" d="M0.5-18.1c0,0.1,0,0.1,0,0.2c-0.1,0.1-0.1,0.1-0.2,0.1c-0.1,0.1-0.1,0.3-0.1,0.4c-0.2,0.1,0,0.2,0,0.3
					c0,0,0,0.1,0,0.2c0,0.1,0,0.3,0.1,0.4c0.1,0.2,0.3,0.4,0.4,0.5c0.2,0.1,0.4,0.6,0.6,0.6c0.2,0,0.4-0.1,0.5-0.1
					c0.2,0,0.4,0,0.6-0.1c0.2-0.1,0.1-0.3,0.3-0.5C2.8-16.1,3-16,3.1-16c0.2-0.1,0.3-0.3,0.4-0.5c0-0.1,0-0.1,0-0.2
					c0-0.1,0.1-0.2,0.1-0.3c0-0.1-0.1-0.1-0.1-0.2c0-0.1,0-0.2,0-0.3c0-0.2,0-0.4-0.1-0.5c-0.4-0.7-1.2-0.9-2-0.8
					c-0.2,0-0.3,0.1-0.4,0.2c-0.2,0.1-0.1,0.2-0.3,0.2c-0.1,0-0.2,0.1-0.2,0.2C0.5-18.1,0.5-18.2,0.5-18.1C0.5-18,0.5-18.1,0.5-18.1
					"/>
			</g>
			<g>
				<path class="st2" d="M69.4-10.4c0,0.1,0,0.1,0,0.2c-0.1,0.1-0.1,0.1-0.2,0.1c-0.1,0.1-0.1,0.3-0.1,0.4c-0.2,0.1,0,0.2,0,0.3
					c0,0,0,0.1,0,0.2c0,0.1,0,0.3,0.1,0.4c0.1,0.2,0.3,0.4,0.4,0.5c0.2,0.1,0.4,0.6,0.6,0.6c0.2,0,0.4-0.1,0.5-0.1
					c0.2,0,0.4,0,0.6-0.1c0.2-0.1,0.1-0.3,0.3-0.5c0.1-0.1,0.3,0,0.4-0.1c0.2-0.1,0.3-0.3,0.4-0.5c0-0.1,0-0.1,0-0.2
					c0-0.1,0.1-0.2,0.1-0.3c0-0.1-0.1-0.1-0.1-0.2c0-0.1,0-0.2,0-0.3c0-0.2,0-0.4-0.1-0.5c-0.4-0.7-1.2-0.9-2-0.8
					c-0.2,0-0.3,0.1-0.4,0.2c-0.2,0.1-0.1,0.2-0.3,0.2c-0.1,0-0.2,0.1-0.2,0.2C69.4-10.5,69.4-10.5,69.4-10.4
					C69.4-10.4,69.4-10.4,69.4-10.4"/>
				<path class="st2" d="M61.8-10.4c0,0.1,0,0.1,0,0.2c-0.1,0.1-0.1,0.1-0.2,0.1c-0.1,0.1-0.1,0.3-0.1,0.4c-0.2,0.1,0,0.2,0,0.3
					c0,0,0,0.1,0,0.2c0,0.1,0,0.3,0.1,0.4c0.1,0.2,0.3,0.4,0.4,0.5c0.2,0.1,0.4,0.6,0.6,0.6c0.2,0,0.4-0.1,0.5-0.1
					c0.2,0,0.4,0,0.6-0.1C63.9-8,63.8-8.2,64-8.3c0.1-0.1,0.3,0,0.4-0.1c0.2-0.1,0.3-0.3,0.4-0.5c0-0.1,0-0.1,0-0.2
					c0-0.1,0.1-0.2,0.1-0.3c0-0.1-0.1-0.1-0.1-0.2c0-0.1,0-0.2,0-0.3c0-0.2,0-0.4-0.1-0.5c-0.4-0.7-1.2-0.9-2-0.8
					c-0.2,0-0.3,0.1-0.4,0.2c-0.2,0.1-0.1,0.2-0.3,0.2c-0.1,0-0.2,0.1-0.2,0.2C61.8-10.5,61.8-10.5,61.8-10.4
					C61.8-10.4,61.8-10.4,61.8-10.4"/>
				<path class="st2" d="M54.1-10.4c0,0.1,0,0.1,0,0.2c-0.1,0.1-0.1,0.1-0.2,0.1c-0.1,0.1-0.1,0.3-0.1,0.4c-0.2,0.1,0,0.2,0,0.3
					c0,0,0,0.1,0,0.2c0,0.1,0,0.3,0.1,0.4c0.1,0.2,0.3,0.4,0.4,0.5c0.2,0.1,0.4,0.6,0.6,0.6c0.2,0,0.4-0.1,0.5-0.1
					c0.2,0,0.4,0,0.6-0.1c0.2-0.1,0.1-0.3,0.3-0.5c0.1-0.1,0.3,0,0.4-0.1c0.2-0.1,0.3-0.3,0.4-0.5c0-0.1,0-0.1,0-0.2
					c0-0.1,0.1-0.2,0.1-0.3c0-0.1-0.1-0.1-0.1-0.2c0-0.1,0-0.2,0-0.3c0-0.2,0-0.4-0.1-0.5c-0.4-0.7-1.2-0.9-2-0.8
					c-0.2,0-0.3,0.1-0.4,0.2c-0.2,0.1-0.1,0.2-0.3,0.2c-0.1,0-0.2,0.1-0.2,0.2C54.1-10.5,54.1-10.5,54.1-10.4
					C54.1-10.4,54.1-10.4,54.1-10.4"/>
				<path class="st2" d="M46.5-10.4c0,0.1,0,0.1,0,0.2c-0.1,0.1-0.1,0.1-0.2,0.1c-0.1,0.1-0.1,0.3-0.1,0.4c-0.2,0.1,0,0.2,0,0.3
					c0,0,0,0.1,0,0.2c0,0.1,0,0.3,0.1,0.4c0.1,0.2,0.3,0.4,0.4,0.5c0.2,0.1,0.4,0.6,0.6,0.6c0.2,0,0.4-0.1,0.5-0.1
					c0.2,0,0.4,0,0.6-0.1c0.2-0.1,0.1-0.3,0.3-0.5c0.1-0.1,0.3,0,0.4-0.1c0.2-0.1,0.3-0.3,0.4-0.5c0-0.1,0-0.1,0-0.2
					c0-0.1,0.1-0.2,0.1-0.3c0-0.1-0.1-0.1-0.1-0.2c0-0.1,0-0.2,0-0.3c0-0.2,0-0.4-0.1-0.5c-0.4-0.7-1.2-0.9-2-0.8
					c-0.2,0-0.3,0.1-0.4,0.2c-0.2,0.1-0.1,0.2-0.3,0.2c-0.1,0-0.2,0.1-0.2,0.2C46.5-10.5,46.5-10.5,46.5-10.4
					C46.5-10.4,46.5-10.4,46.5-10.4"/>
				<path class="st2" d="M38.8-10.4c0,0.1,0,0.1,0,0.2c-0.1,0.1-0.1,0.1-0.2,0.1c-0.1,0.1-0.1,0.3-0.1,0.4c-0.2,0.1,0,0.2,0,0.3
					c0,0,0,0.1,0,0.2c0,0.1,0,0.3,0.1,0.4c0.1,0.2,0.3,0.4,0.4,0.5c0.2,0.1,0.4,0.6,0.6,0.6c0.2,0,0.4-0.1,0.5-0.1
					c0.2,0,0.4,0,0.6-0.1C40.9-8,40.8-8.2,41-8.3c0.1-0.1,0.3,0,0.4-0.1c0.2-0.1,0.3-0.3,0.4-0.5c0-0.1,0-0.1,0-0.2
					c0-0.1,0.1-0.2,0.1-0.3c0-0.1-0.1-0.1-0.1-0.2c0-0.1,0-0.2,0-0.3c0-0.2,0-0.4-0.1-0.5c-0.4-0.7-1.2-0.9-2-0.8
					c-0.2,0-0.3,0.1-0.4,0.2c-0.2,0.1-0.1,0.2-0.3,0.2c-0.1,0-0.2,0.1-0.2,0.2C38.8-10.5,38.8-10.5,38.8-10.4
					C38.8-10.4,38.8-10.4,38.8-10.4"/>
				<path class="st2" d="M31.1-10.4c0,0.1,0,0.1,0,0.2c-0.1,0.1-0.1,0.1-0.2,0.1c-0.1,0.1-0.1,0.3-0.1,0.4c-0.2,0.1,0,0.2,0,0.3
					c0,0,0,0.1,0,0.2c0,0.1,0,0.3,0.1,0.4c0.1,0.2,0.3,0.4,0.4,0.5c0.2,0.1,0.4,0.6,0.6,0.6c0.2,0,0.4-0.1,0.5-0.1
					c0.2,0,0.4,0,0.6-0.1c0.2-0.1,0.1-0.3,0.3-0.5c0.1-0.1,0.3,0,0.4-0.1c0.2-0.1,0.3-0.3,0.4-0.5c0-0.1,0-0.1,0-0.2
					c0-0.1,0.1-0.2,0.1-0.3c0-0.1-0.1-0.1-0.1-0.2c0-0.1,0-0.2,0-0.3c0-0.2,0-0.4-0.1-0.5c-0.4-0.7-1.2-0.9-2-0.8
					c-0.2,0-0.3,0.1-0.4,0.2c-0.2,0.1-0.1,0.2-0.3,0.2c-0.1,0-0.2,0.1-0.2,0.2C31.1-10.5,31.1-10.5,31.1-10.4
					C31.1-10.4,31.1-10.4,31.1-10.4"/>
				<path class="st2" d="M23.5-10.4c0,0.1,0,0.1,0,0.2c-0.1,0.1-0.1,0.1-0.2,0.1c-0.1,0.1-0.1,0.3-0.1,0.4c-0.2,0.1,0,0.2,0,0.3
					c0,0,0,0.1,0,0.2c0,0.1,0,0.3,0.1,0.4c0.1,0.2,0.3,0.4,0.4,0.5c0.2,0.1,0.4,0.6,0.6,0.6c0.2,0,0.4-0.1,0.5-0.1
					c0.2,0,0.4,0,0.6-0.1c0.2-0.1,0.1-0.3,0.3-0.5c0.1-0.1,0.3,0,0.4-0.1c0.2-0.1,0.3-0.3,0.4-0.5c0-0.1,0-0.1,0-0.2
					c0-0.1,0.1-0.2,0.1-0.3c0-0.1-0.1-0.1-0.1-0.2c0-0.1,0-0.2,0-0.3c0-0.2,0-0.4-0.1-0.5c-0.4-0.7-1.2-0.9-2-0.8
					c-0.2,0-0.3,0.1-0.4,0.2c-0.2,0.1-0.1,0.2-0.3,0.2c-0.1,0-0.2,0.1-0.2,0.2C23.5-10.5,23.5-10.5,23.5-10.4
					C23.5-10.4,23.5-10.4,23.5-10.4"/>
				<path class="st2" d="M15.8-10.4c0,0.1,0,0.1,0,0.2c-0.1,0.1-0.1,0.1-0.2,0.1c-0.1,0.1-0.1,0.3-0.1,0.4c-0.2,0.1,0,0.2,0,0.3
					c0,0,0,0.1,0,0.2c0,0.1,0,0.3,0.1,0.4c0.1,0.2,0.3,0.4,0.4,0.5c0.2,0.1,0.4,0.6,0.6,0.6c0.2,0,0.4-0.1,0.5-0.1
					c0.2,0,0.4,0,0.6-0.1C17.9-8,17.8-8.2,18-8.3c0.1-0.1,0.3,0,0.4-0.1c0.2-0.1,0.3-0.3,0.4-0.5c0-0.1,0-0.1,0-0.2
					c0-0.1,0.1-0.2,0.1-0.3c0-0.1-0.1-0.1-0.1-0.2c0-0.1,0-0.2,0-0.3c0-0.2,0-0.4-0.1-0.5c-0.4-0.7-1.2-0.9-2-0.8
					c-0.2,0-0.3,0.1-0.4,0.2c-0.2,0.1-0.1,0.2-0.3,0.2c-0.1,0-0.2,0.1-0.2,0.2C15.8-10.5,15.8-10.5,15.8-10.4
					C15.8-10.4,15.8-10.4,15.8-10.4"/>
				<path class="st2" d="M8.2-10.4c0,0.1,0,0.1,0,0.2C8.1-10.1,8-10.2,8-10.1C7.9-10,7.9-9.8,7.9-9.8c-0.2,0.1,0,0.2,0,0.3
					c0,0,0,0.1,0,0.2c0,0.1,0,0.3,0.1,0.4C8-8.7,8.2-8.5,8.3-8.3c0.2,0.1,0.4,0.6,0.6,0.6c0.2,0,0.4-0.1,0.5-0.1
					c0.2,0,0.4,0,0.6-0.1c0.2-0.1,0.1-0.3,0.3-0.5c0.1-0.1,0.3,0,0.4-0.1c0.2-0.1,0.3-0.3,0.4-0.5c0-0.1,0-0.1,0-0.2
					c0-0.1,0.1-0.2,0.1-0.3c0-0.1-0.1-0.1-0.1-0.2c0-0.1,0-0.2,0-0.3c0-0.2,0-0.4-0.1-0.5c-0.4-0.7-1.2-0.9-2-0.8
					c-0.2,0-0.3,0.1-0.4,0.2c-0.2,0.1-0.1,0.2-0.3,0.2c-0.1,0-0.2,0.1-0.2,0.2C8.2-10.5,8.2-10.5,8.2-10.4
					C8.1-10.4,8.1-10.4,8.2-10.4"/>
				<path class="st2" d="M0.5-10.4c0,0.1,0,0.1,0,0.2c-0.1,0.1-0.1,0.1-0.2,0.1C0.3-10,0.2-9.8,0.2-9.8c-0.2,0.1,0,0.2,0,0.3
					c0,0,0,0.1,0,0.2c0,0.1,0,0.3,0.1,0.4c0.1,0.2,0.3,0.4,0.4,0.5C0.9-8.2,1-7.8,1.3-7.7c0.2,0,0.4-0.1,0.5-0.1
					c0.2,0,0.4,0,0.6-0.1C2.6-8,2.5-8.2,2.7-8.3c0.1-0.1,0.3,0,0.4-0.1c0.2-0.1,0.3-0.3,0.4-0.5c0-0.1,0-0.1,0-0.2
					c0-0.1,0.1-0.2,0.1-0.3c0-0.1-0.1-0.1-0.1-0.2c0-0.1,0-0.2,0-0.3c0-0.2,0-0.4-0.1-0.5c-0.4-0.7-1.2-0.9-2-0.8
					c-0.2,0-0.3,0.1-0.4,0.2c-0.2,0.1-0.1,0.2-0.3,0.2c-0.1,0-0.2,0.1-0.2,0.2C0.5-10.5,0.5-10.5,0.5-10.4
					C0.5-10.4,0.5-10.4,0.5-10.4"/>
			</g>
		</g>
		<g>
			<path class="st2" d="M69.4-2.8c0,0.1,0,0.1,0,0.2c-0.1,0.1-0.1,0.1-0.2,0.1c-0.1,0.1-0.1,0.3-0.1,0.4c-0.2,0.1,0,0.2,0,0.3
				c0,0,0,0.1,0,0.2c0,0.1,0,0.3,0.1,0.4c0.1,0.2,0.3,0.4,0.4,0.5C69.8-0.5,70-0.1,70.2,0c0.2,0,0.4-0.1,0.5-0.1
				c0.2,0,0.4,0,0.6-0.1c0.2-0.1,0.1-0.3,0.3-0.5c0.1-0.1,0.3,0,0.4-0.1c0.2-0.1,0.3-0.3,0.4-0.5c0-0.1,0-0.1,0-0.2
				c0-0.1,0.1-0.2,0.1-0.3c0-0.1-0.1-0.1-0.1-0.2c0-0.1,0-0.2,0-0.3c0-0.2,0-0.4-0.1-0.5c-0.4-0.7-1.2-0.9-2-0.8
				c-0.2,0-0.3,0.1-0.4,0.2c-0.2,0.1-0.1,0.2-0.3,0.2c-0.1,0-0.2,0.1-0.2,0.2C69.4-2.8,69.4-2.9,69.4-2.8
				C69.4-2.7,69.4-2.8,69.4-2.8"/>
			<path class="st2" d="M61.8-2.8c0,0.1,0,0.1,0,0.2c-0.1,0.1-0.1,0.1-0.2,0.1c-0.1,0.1-0.1,0.3-0.1,0.4c-0.2,0.1,0,0.2,0,0.3
				c0,0,0,0.1,0,0.2c0,0.1,0,0.3,0.1,0.4C61.6-1,61.8-0.8,62-0.7c0.2,0.1,0.4,0.6,0.6,0.6c0.2,0,0.4-0.1,0.5-0.1
				c0.2,0,0.4,0,0.6-0.1c0.2-0.1,0.1-0.3,0.3-0.5c0.1-0.1,0.3,0,0.4-0.1c0.2-0.1,0.3-0.3,0.4-0.5c0-0.1,0-0.1,0-0.2
				c0-0.1,0.1-0.2,0.1-0.3c0-0.1-0.1-0.1-0.1-0.2c0-0.1,0-0.2,0-0.3c0-0.2,0-0.4-0.1-0.5c-0.4-0.7-1.2-0.9-2-0.8
				c-0.2,0-0.3,0.1-0.4,0.2c-0.2,0.1-0.1,0.2-0.3,0.2c-0.1,0-0.2,0.1-0.2,0.2C61.8-2.8,61.8-2.9,61.8-2.8
				C61.8-2.7,61.8-2.8,61.8-2.8"/>
			<path class="st2" d="M54.1-2.8c0,0.1,0,0.1,0,0.2C54-2.5,54-2.5,53.9-2.5c-0.1,0.1-0.1,0.3-0.1,0.4c-0.2,0.1,0,0.2,0,0.3
				c0,0,0,0.1,0,0.2c0,0.1,0,0.3,0.1,0.4C54-1,54.1-0.8,54.3-0.7c0.2,0.1,0.4,0.6,0.6,0.6c0.2,0,0.4-0.1,0.5-0.1
				c0.2,0,0.4,0,0.6-0.1c0.2-0.1,0.1-0.3,0.3-0.5c0.1-0.1,0.3,0,0.4-0.1C56.9-0.8,57-1,57.1-1.2c0-0.1,0-0.1,0-0.2
				c0-0.1,0.1-0.2,0.1-0.3c0-0.1-0.1-0.1-0.1-0.2c0-0.1,0-0.2,0-0.3c0-0.2,0-0.4-0.1-0.5c-0.4-0.7-1.2-0.9-2-0.8
				c-0.2,0-0.3,0.1-0.4,0.2c-0.2,0.1-0.1,0.2-0.3,0.2c-0.1,0-0.2,0.1-0.2,0.2C54.1-2.8,54.1-2.9,54.1-2.8
				C54.1-2.7,54.1-2.8,54.1-2.8"/>
			<path class="st2" d="M46.5-2.8c0,0.1,0,0.1,0,0.2c-0.1,0.1-0.1,0.1-0.2,0.1c-0.1,0.1-0.1,0.3-0.1,0.4c-0.2,0.1,0,0.2,0,0.3
				c0,0,0,0.1,0,0.2c0,0.1,0,0.3,0.1,0.4c0.1,0.2,0.3,0.4,0.4,0.5C46.8-0.5,47-0.1,47.2,0c0.2,0,0.4-0.1,0.5-0.1
				c0.2,0,0.4,0,0.6-0.1c0.2-0.1,0.1-0.3,0.3-0.5c0.1-0.1,0.3,0,0.4-0.1c0.2-0.1,0.3-0.3,0.4-0.5c0-0.1,0-0.1,0-0.2
				c0-0.1,0.1-0.2,0.1-0.3c0-0.1-0.1-0.1-0.1-0.2c0-0.1,0-0.2,0-0.3c0-0.2,0-0.4-0.1-0.5c-0.4-0.7-1.2-0.9-2-0.8
				c-0.2,0-0.3,0.1-0.4,0.2c-0.2,0.1-0.1,0.2-0.3,0.2c-0.1,0-0.2,0.1-0.2,0.2C46.5-2.8,46.5-2.9,46.5-2.8
				C46.5-2.7,46.5-2.8,46.5-2.8"/>
			<path class="st2" d="M38.8-2.8c0,0.1,0,0.1,0,0.2c-0.1,0.1-0.1,0.1-0.2,0.1c-0.1,0.1-0.1,0.3-0.1,0.4c-0.2,0.1,0,0.2,0,0.3
				c0,0,0,0.1,0,0.2c0,0.1,0,0.3,0.1,0.4C38.6-1,38.8-0.8,39-0.7c0.2,0.1,0.4,0.6,0.6,0.6c0.2,0,0.4-0.1,0.5-0.1
				c0.2,0,0.4,0,0.6-0.1c0.2-0.1,0.1-0.3,0.3-0.5c0.1-0.1,0.3,0,0.4-0.1c0.2-0.1,0.3-0.3,0.4-0.5c0-0.1,0-0.1,0-0.2
				c0-0.1,0.1-0.2,0.1-0.3c0-0.1-0.1-0.1-0.1-0.2c0-0.1,0-0.2,0-0.3c0-0.2,0-0.4-0.1-0.5c-0.4-0.7-1.2-0.9-2-0.8
				c-0.2,0-0.3,0.1-0.4,0.2c-0.2,0.1-0.1,0.2-0.3,0.2c-0.1,0-0.2,0.1-0.2,0.2C38.8-2.8,38.8-2.9,38.8-2.8
				C38.8-2.7,38.8-2.8,38.8-2.8"/>
			<path class="st2" d="M31.1-2.8c0,0.1,0,0.1,0,0.2c-0.1,0.1-0.1,0.1-0.2,0.1c-0.1,0.1-0.1,0.3-0.1,0.4c-0.2,0.1,0,0.2,0,0.3
				c0,0,0,0.1,0,0.2c0,0.1,0,0.3,0.1,0.4C31-1,31.1-0.8,31.3-0.7c0.2,0.1,0.4,0.6,0.6,0.6c0.2,0,0.4-0.1,0.5-0.1
				c0.2,0,0.4,0,0.6-0.1c0.2-0.1,0.1-0.3,0.3-0.5c0.1-0.1,0.3,0,0.4-0.1c0.2-0.1,0.3-0.3,0.4-0.5c0-0.1,0-0.1,0-0.2
				c0-0.1,0.1-0.2,0.1-0.3c0-0.1-0.1-0.1-0.1-0.2c0-0.1,0-0.2,0-0.3c0-0.2,0-0.4-0.1-0.5c-0.4-0.7-1.2-0.9-2-0.8
				c-0.2,0-0.3,0.1-0.4,0.2c-0.2,0.1-0.1,0.2-0.3,0.2c-0.1,0-0.2,0.1-0.2,0.2C31.1-2.8,31.1-2.9,31.1-2.8
				C31.1-2.7,31.1-2.8,31.1-2.8"/>
			<path class="st2" d="M23.5-2.8c0,0.1,0,0.1,0,0.2c-0.1,0.1-0.1,0.1-0.2,0.1c-0.1,0.1-0.1,0.3-0.1,0.4c-0.2,0.1,0,0.2,0,0.3
				c0,0,0,0.1,0,0.2c0,0.1,0,0.3,0.1,0.4c0.1,0.2,0.3,0.4,0.4,0.5C23.8-0.5,24-0.1,24.3,0c0.2,0,0.4-0.1,0.5-0.1
				c0.2,0,0.4,0,0.6-0.1c0.2-0.1,0.1-0.3,0.3-0.5c0.1-0.1,0.3,0,0.4-0.1c0.2-0.1,0.3-0.3,0.4-0.5c0-0.1,0-0.1,0-0.2
				c0-0.1,0.1-0.2,0.1-0.3c0-0.1-0.1-0.1-0.1-0.2c0-0.1,0-0.2,0-0.3c0-0.2,0-0.4-0.1-0.5c-0.4-0.7-1.2-0.9-2-0.8
				c-0.2,0-0.3,0.1-0.4,0.2c-0.2,0.1-0.1,0.2-0.3,0.2c-0.1,0-0.2,0.1-0.2,0.2C23.5-2.8,23.5-2.9,23.5-2.8
				C23.5-2.7,23.5-2.8,23.5-2.8"/>
			<path class="st2" d="M15.8-2.8c0,0.1,0,0.1,0,0.2c-0.1,0.1-0.1,0.1-0.2,0.1c-0.1,0.1-0.1,0.3-0.1,0.4c-0.2,0.1,0,0.2,0,0.3
				c0,0,0,0.1,0,0.2c0,0.1,0,0.3,0.1,0.4C15.7-1,15.8-0.8,16-0.7c0.2,0.1,0.4,0.6,0.6,0.6c0.2,0,0.4-0.1,0.5-0.1
				c0.2,0,0.4,0,0.6-0.1c0.2-0.1,0.1-0.3,0.3-0.5c0.1-0.1,0.3,0,0.4-0.1c0.2-0.1,0.3-0.3,0.4-0.5c0-0.1,0-0.1,0-0.2
				c0-0.1,0.1-0.2,0.1-0.3c0-0.1-0.1-0.1-0.1-0.2c0-0.1,0-0.2,0-0.3c0-0.2,0-0.4-0.1-0.5c-0.4-0.7-1.2-0.9-2-0.8
				c-0.2,0-0.3,0.1-0.4,0.2c-0.2,0.1-0.1,0.2-0.3,0.2c-0.1,0-0.2,0.1-0.2,0.2C15.8-2.8,15.8-2.9,15.8-2.8
				C15.8-2.7,15.8-2.8,15.8-2.8"/>
			<path class="st2" d="M8.2-2.8c0,0.1,0,0.1,0,0.2C8.1-2.5,8-2.5,8-2.5C7.9-2.4,7.9-2.2,7.9-2.1c-0.2,0.1,0,0.2,0,0.3
				c0,0,0,0.1,0,0.2c0,0.1,0,0.3,0.1,0.4C8-1,8.2-0.8,8.3-0.7C8.5-0.5,8.7-0.1,8.9,0c0.2,0,0.4-0.1,0.5-0.1c0.2,0,0.4,0,0.6-0.1
				c0.2-0.1,0.1-0.3,0.3-0.5c0.1-0.1,0.3,0,0.4-0.1c0.2-0.1,0.3-0.3,0.4-0.5c0-0.1,0-0.1,0-0.2c0-0.1,0.1-0.2,0.1-0.3
				c0-0.1-0.1-0.1-0.1-0.2c0-0.1,0-0.2,0-0.3c0-0.2,0-0.4-0.1-0.5c-0.4-0.7-1.2-0.9-2-0.8C9-3.5,8.8-3.4,8.7-3.4
				C8.5-3.3,8.6-3.2,8.4-3.1C8.3-3.1,8.2-3,8.2-2.9C8.2-2.8,8.2-2.9,8.2-2.8C8.1-2.7,8.1-2.8,8.2-2.8"/>
			<path class="st2" d="M0.5-2.8c0,0.1,0,0.1,0,0.2C0.4-2.5,0.4-2.5,0.3-2.5C0.3-2.4,0.2-2.2,0.2-2.1c-0.2,0.1,0,0.2,0,0.3
				c0,0,0,0.1,0,0.2c0,0.1,0,0.3,0.1,0.4C0.3-1,0.5-0.8,0.7-0.7C0.9-0.5,1-0.1,1.3,0c0.2,0,0.4-0.1,0.5-0.1c0.2,0,0.4,0,0.6-0.1
				c0.2-0.1,0.1-0.3,0.3-0.5c0.1-0.1,0.3,0,0.4-0.1C3.3-0.8,3.4-1,3.5-1.2c0-0.1,0-0.1,0-0.2c0-0.1,0.1-0.2,0.1-0.3
				c0-0.1-0.1-0.1-0.1-0.2c0-0.1,0-0.2,0-0.3c0-0.2,0-0.4-0.1-0.5c-0.4-0.7-1.2-0.9-2-0.8C1.3-3.5,1.2-3.4,1-3.4
				C0.9-3.3,0.9-3.2,0.7-3.1C0.6-3.1,0.5-3,0.5-2.9C0.5-2.8,0.5-2.9,0.5-2.8C0.5-2.7,0.5-2.8,0.5-2.8"/>
		</g>
	</g>
</pattern>
<g>
	<g>
		<path class="st3" d="M236.2,151.5c-3-2.2-6.5-4.8-8-6.3c0.8-1.5,2.3-3.7,3.7-5.6c7.8-11.3,22.5-32.8,22.5-63.4
			c0-17.6-6.4-36.7-21.9-51.3C217,10.2,192.5,0,156.6,0C122.5,0,84.2,11.2,51,30.8c-14.9,8.8-27.1,18.3-35.7,27.4
			C6.8,67.3,1.9,76.1,1.8,83.6c0,3.6,1.4,7,4,9.6c4.8,4.8,13.4,7,24.4,8.2c11,1.1,24.3,1.2,38.7,1.2h2.6c22.2,0,37.8,0.6,47.9,2.1
			c5,0.7,8.6,1.7,10.8,2.8c2.3,1.2,3,2.3,3,3.5c0,0.5-0.6,1.7-1.9,3c-4.8,4.8-17.4,11.9-28.7,19.7c-5.7,3.9-11,8-15,12.2
			c-4,4.2-6.7,8.5-6.7,12.9l0,0v0.2l0,0c0.1,5.6,3,10.2,7.6,13.7c13.7,10.5,42.2,13.3,57.1,16c9.2,1.7,14.1,4.9,16.7,8.5
			c2.6,3.6,3.1,7.6,3.1,11c0,12.8-4.7,24-13.2,31.7c-7.6,6.9-16.7,11.4-29.9,11.5c-0.5,0-1,0-1.6,0c0.3-2.5,0.5-5,0.5-7.5
			c0-15-5.9-27.6-15.9-36.3c-10-8.7-24.1-13.6-40.5-13.6c-20.2,0-36.4,8.4-47.5,20.8C6,227.4,0,243.8,0,260
			c0,25.5,11.8,51.1,34.7,70.3c22.9,19.2,57,32,101.6,32c35.4,0,71-11.7,98-32c22.4-16.8,49.1-47.6,49.1-97.9
			C283.5,186.3,252.5,163.5,236.2,151.5L236.2,151.5z M95.4,154.8c4.9-4.9,15.1-11.9,22.8-16.8c7.5-4.8,14.2-9.1,19.1-13.4
			c4.9-4.3,8.1-8.7,8.1-13.7c0-4-1.5-7.6-4.4-10.5c-5.2-5.1-14.4-7.5-25.9-8.8c-11.5-1.3-25.3-1.3-39.6-1.3c-1.3,0-2.6,0-3.9,0
			c-11.8,0-21.2-0.2-28.7-0.5c10.4-4.1,22.5-10.5,35.7-17.5c21.3-11.4,45-24.1,67.3-29.7c-5.1,5.8-8.5,12.5-8.5,18.2
			c0,1.4,0.4,2.9,1.5,4.1c1.1,1.2,2.8,1.9,5.1,1.9c4,0,8.4-1.5,13.5-3.2c7-2.3,15-4.9,23.9-4.9c7.7,0,16.1,2,25,7.9
			c-5.9,0.4-10.7,2.1-13.8,4.5c-3.3,2.5-4.1,5.4-4.1,7.4c0,3.3,2.3,5.7,5.2,9c4.6,5.2,10.6,11.9,10.6,22.8c0,8-3,16.4-7.6,22.8
			c0-0.5,0-0.9,0-1.4c0-5.5-1.2-11.8-4.3-15.3c-1.8-2.1-4.3-3.3-7-3.2c-4.7,0-8.7,3.6-14.7,8.5c-4.3,3.5-9.5,8-16.2,12.2
			c-28.1,17.7-43.2,24.6-53.9,25.4C96.5,159.7,90.6,159.6,95.4,154.8z M121.2,263.2c15.8,0,29-4.8,39.2-14.2
			c10.9-9.9,17.1-24.8,17.1-40.7c0-7.6-2.4-14-6.8-18.9c23.6,5.6,48.1,17.7,61.7,36c-6.1-2-10.4-2.5-14.7-2.5
			c-4.4,0.1-7.9,4.6-7.9,9.9c0,2.8,1,5.9,2.3,9.8c2,6,4.5,13.8,4.5,23.2c0,8.6-2.1,18.5-8.9,29.5c-0.2-8.9-2.6-16-5.7-19.8
			c-2.4-2.9-5-3.7-6.7-3.7c-2.8,0-5,1.4-6.8,3.5c-1.8,2.1-3.4,5-5.2,8.3c-6.5,11.6-16.7,30.2-48.7,39.8c2.9-5,4.4-10.1,4.4-14.2
			c0-1.6-0.2-3.1-0.8-4.3c-1-2.4-3.1-3.9-5.5-3.9c0,0-0.1,0-0.1,0c-3.5,0.1-7.6,1.2-12.3,2.6c-7.4,2.1-16.3,4.6-26.1,4.6
			c-10.2,0-21.3-2.7-32.7-11.3c4-0.6,7.5-2,10-4.2c2.1-1.8,3.4-4.1,3.4-6.6c-0.1-3.7-3-6.3-6.3-9.4c-4.9-4.6-10.7-10-10.7-19.2
			c0-2.6,0.5-5.6,1.6-9c1,2.9,2.6,5.5,4.5,7.7c3,3.2,6.6,5.2,10,5.2c3.7,0,5.8-1.7,6.8-3.9c1-2.2,0.9-4.7,0.9-6.7c0-2.3,1-4.4,2.7-6
			c1.7-1.6,4-2.6,6.3-2.6c5.4,0,9.4,3,12.3,7.5c2.8,4.5,4.3,10.4,4.3,16c0,3.5-0.6,6.8-1.7,9.5l-1.2,3l2.5-2
			c4.8-3.7,8.6-9,10.3-12.9C118.6,263.1,119.9,263.2,121.2,263.2z M16.7,87.2c-1.7-1-2.7-2-2.7-3.6c0-4.3,4.1-11.3,11.8-18.9
			c22.9-22.9,75.9-52.5,130.8-52.5c27.8,0,50.4,6.9,65.4,19.7c13,11.1,20.2,26.8,20.2,44.3c0,26.9-12.7,45.4-20.4,56.6
			c-3.9,5.7-6.3,9-6.3,12.8c0,3,1.4,5.5,3.8,7.9c2.3,2.4,5.6,4.8,9.7,7.8c16,11.8,42.3,31.2,42.3,71.1c0,45.4-24,72.9-44.2,88.2
			c-24.9,18.8-58,29.5-90.8,29.5c-81.8,0-124.1-45.5-124.1-90.1c0-13.2,4.9-26.7,14-36.9c9-10.2,22.1-17,38.6-17h0
			c9.2,0,20.8,2.1,30,8.3c9.2,6.2,16.1,16.2,16.1,32.5c0,0.5,0,1,0,1.4c-0.8-1.8-2-3.9-3.6-5.8c-3.3-4.1-8.6-7.7-16.4-7.7
			c-8.8,0-16.3,7.2-16.3,15.8c0,1.6-0.2,2.6-0.4,3.1c-0.1,0.2-0.1,0.3-0.2,0.3c-2.1,0-4.7-1.5-6.7-4.4c-2.1-3-3.6-7.3-3.6-12.9
			c0-1.1,0.1-2.3,0.2-3.5l0.3-2.6l-1.8,2c-8.3,9.2-11.3,17.5-11.3,24.7c0,11.7,7.9,20.1,12.6,24.5c0.9,0.8,1.9,1.8,2.7,2.6
			c0.4,0.4,0.8,0.8,1,1.1c0.1,0.2,0.2,0.3,0.3,0.4c0,0,0,0.1,0,0.1c-0.1,0.4-0.9,1.6-3.1,2.4c-2.4,1-6.1,1.8-11.5,1.8
			c-1.9,0-3.9-0.1-6.2-0.3l-2.1-0.2l1.3,1.6c15.7,18.7,33,23.8,48,23.8c11.1,0,20.9-2.8,28-4.7c3-0.9,6.4-2.1,8.2-2.1
			c0.8,0,1.1,0.2,1.2,0.4c0.2,0.2,0.3,0.7,0.3,1.4c0,2.2-1.3,6.1-3.4,10.2c-2.1,4.1-5.1,8.3-8.4,11.3l-2,1.8l2.7-0.3
			c45.8-5.9,61-32.4,68.6-46.1c1.2-2.3,2.4-4.4,3.5-5.9c1-1.5,2.1-2.3,2.3-2.2c0.4,0,1.1,0.4,1.9,1.5c2.3,3.3,4.1,11.7,4.1,20.4
			c0,3.8-0.3,7.6-1.1,11.2l-0.6,2.7l2-1.9c17.3-16,22-32.8,22-46.8c0-10.7-2.8-19.8-4.7-25.7c-1.1-3.3-1.9-6.2-1.9-7.5
			c0-1.2,0.2-1.8,0.4-2.1c0.2-0.3,0.6-0.5,1.3-0.7c7.3,0,16,2.6,26.4,7.6l2,1l-0.9-2.1c-14.1-33-45.5-47.2-76.1-54.9
			c-15.3-3.9-30.5-6.1-43.2-8.3c-9.3-1.6-17.3-3.2-23.1-5.3c-1-0.4-1.9-0.9-2.9-1.3c17.5-2.2,38.6-14.5,57.3-26.5
			c7-4.5,12.5-9.1,16.9-12.7c2.3-1.9,4.4-3.6,6.2-4.9c1.8-1.3,3.3-2,4-2c0.6,0,1.2,0.3,1.7,0.9c1.7,1.9,2.7,7,2.7,12.6
			c0,4.5-0.6,9.3-1.7,13.2l-0.6,2.2l1.9-1.2c14.9-9.6,22-24.1,22-37.6c0-13.6-7.6-22.1-12.4-27.6c-0.7-0.8-1.6-1.8-2.3-2.7
			c-0.6-0.7-1-1.4-1.1-1.6c0.1-0.3,0.5-1.1,1.3-1.6c3.1-2.3,8.4-3.8,14.6-3.8c3.1,0,6.5,0.4,9.9,1.2l2.3,0.5l-1.5-1.9
			c-12.8-16.4-27.5-21.2-40.6-21.2c-10.3,0-19.7,2.9-26.5,5.1c-3.3,1.1-7.9,2.5-9.9,2.5c-0.2,0-0.4,0-0.5,0c0-2.4,1.8-6.4,5.1-10.7
			c3.4-4.4,8.3-9.1,14.7-12.9l2.3-1.4L164,34c-1.2-0.1-2.4-0.1-3.6-0.1C134,33.9,100.1,53,75,66C59.4,74,26.5,93.1,16.7,87.2z"/>
	</g>
	<g>
		<g>
			<g>
				<path class="st3" d="M11.2,383.2v-6.4h28.5v6.4H29.3v28.4h-7.7v-28.4H11.2z"/>
				<path class="st3" d="M49,376.8v13.1h0.1c0.9-1.5,2-2.5,3.4-3.2c1.4-0.7,2.7-1,4-1c1.8,0,3.4,0.3,4.6,0.8
					c1.2,0.5,2.1,1.2,2.8,2.1c0.7,0.9,1.2,2,1.4,3.3c0.3,1.3,0.4,2.7,0.4,4.3v15.5h-6.9v-14.2c0-2.1-0.3-3.6-1-4.7
					c-0.7-1-1.8-1.5-3.5-1.5c-1.9,0-3.3,0.6-4.1,1.7c-0.9,1.1-1.3,3-1.3,5.5v13.2H42v-34.8H49z"/>
				<path class="st3" d="M75.5,386.4v4.7h0.1c0.3-0.8,0.8-1.5,1.3-2.2c0.6-0.7,1.2-1.2,1.9-1.7c0.7-0.5,1.5-0.9,2.3-1.1
					c0.8-0.3,1.7-0.4,2.5-0.4c0.5,0,1,0.1,1.5,0.2v6.4c-0.3-0.1-0.7-0.1-1.2-0.2c-0.5,0-0.9-0.1-1.3-0.1c-1.3,0-2.3,0.2-3.2,0.6
					c-0.9,0.4-1.6,1-2.1,1.7c-0.5,0.7-0.9,1.6-1.1,2.5c-0.2,1-0.3,2-0.3,3.2v11.4H69v-25.2H75.5z"/>
				<path class="st3" d="M94.4,405.6c1,1,2.5,1.5,4.5,1.5c1.4,0,2.6-0.4,3.6-1c1-0.7,1.6-1.4,1.9-2.2h6.1c-1,3-2.5,5.2-4.5,6.5
					c-2,1.3-4.5,2-7.3,2c-2,0-3.8-0.3-5.4-1c-1.6-0.6-2.9-1.5-4-2.7c-1.1-1.2-2-2.6-2.6-4.2c-0.6-1.6-0.9-3.4-0.9-5.4
					c0-1.9,0.3-3.6,0.9-5.3c0.6-1.6,1.5-3,2.6-4.2c1.1-1.2,2.5-2.1,4.1-2.8c1.6-0.7,3.3-1,5.2-1c2.1,0,4,0.4,5.6,1.2
					c1.6,0.8,2.9,1.9,3.9,3.3c1,1.4,1.8,3,2.2,4.8c0.5,1.8,0.6,3.6,0.5,5.6H92.7C92.8,402.9,93.4,404.6,94.4,405.6z M102.2,392.3
					c-0.8-0.9-2.1-1.4-3.8-1.4c-1.1,0-2,0.2-2.8,0.6c-0.7,0.4-1.3,0.8-1.7,1.4c-0.4,0.6-0.7,1.1-0.9,1.8c-0.2,0.6-0.3,1.2-0.3,1.6
					H104C103.6,394.5,103.1,393.2,102.2,392.3z"/>
				<path class="st3" d="M121.5,405.6c1,1,2.5,1.5,4.5,1.5c1.4,0,2.6-0.4,3.6-1c1-0.7,1.6-1.4,1.8-2.2h6.1c-1,3-2.5,5.2-4.5,6.5
					c-2,1.3-4.5,2-7.3,2c-2,0-3.8-0.3-5.4-1c-1.6-0.6-2.9-1.5-4-2.7c-1.1-1.2-2-2.6-2.6-4.2c-0.6-1.6-0.9-3.4-0.9-5.4
					c0-1.9,0.3-3.6,0.9-5.3c0.6-1.6,1.5-3,2.6-4.2c1.1-1.2,2.5-2.1,4.1-2.8c1.6-0.7,3.3-1,5.2-1c2.1,0,4,0.4,5.6,1.2
					c1.6,0.8,2.9,1.9,3.9,3.3c1,1.4,1.8,3,2.2,4.8c0.5,1.8,0.6,3.6,0.5,5.6h-18.2C119.9,402.9,120.4,404.6,121.5,405.6z
					 M129.3,392.3c-0.8-0.9-2.1-1.4-3.8-1.4c-1.1,0-2,0.2-2.8,0.6c-0.7,0.4-1.3,0.8-1.7,1.4c-0.4,0.6-0.8,1.1-0.9,1.8
					c-0.2,0.6-0.3,1.2-0.3,1.6H131C130.7,394.5,130.1,393.2,129.3,392.3z"/>
				<path class="st3" d="M149.1,404.1v7.5h-7.7v-7.5H149.1z"/>
				<path class="st3" d="M165.2,390.9c-1.1,0-2,0.3-2.8,0.8c-0.8,0.5-1.4,1.2-1.8,1.9c-0.5,0.8-0.8,1.7-1,2.6
					c-0.2,0.9-0.3,1.9-0.3,2.8c0,0.9,0.1,1.8,0.3,2.8c0.2,0.9,0.5,1.8,1,2.6c0.4,0.8,1,1.4,1.8,1.9c0.7,0.5,1.7,0.7,2.7,0.7
					c1.7,0,2.9-0.5,3.8-1.4c0.9-0.9,1.5-2.2,1.7-3.7h6.7c-0.5,3.4-1.8,5.9-3.9,7.7c-2.1,1.8-4.9,2.6-8.2,2.6c-1.9,0-3.6-0.3-5.2-1
					c-1.6-0.6-2.9-1.5-4-2.7c-1.1-1.1-2-2.5-2.6-4.1c-0.6-1.6-0.9-3.3-0.9-5.2c0-1.9,0.3-3.8,0.9-5.4c0.6-1.7,1.4-3.1,2.5-4.3
					c1.1-1.2,2.5-2.2,4-2.9c1.6-0.7,3.4-1,5.5-1c1.5,0,2.9,0.2,4.3,0.6c1.4,0.4,2.6,1,3.7,1.8c1.1,0.8,2,1.8,2.7,3
					c0.7,1.2,1.1,2.6,1.2,4.2h-6.8C169.9,392.4,168.2,390.9,165.2,390.9z"/>
				<path class="st3" d="M180.4,393.5c0.6-1.6,1.5-3,2.6-4.2c1.1-1.2,2.5-2,4.1-2.7c1.6-0.6,3.4-1,5.4-1c2,0,3.8,0.3,5.4,1
					c1.6,0.6,3,1.5,4.1,2.7c1.1,1.2,2,2.6,2.6,4.2c0.6,1.6,0.9,3.5,0.9,5.5c0,2-0.3,3.8-0.9,5.5c-0.6,1.6-1.5,3-2.6,4.2
					c-1.1,1.2-2.5,2-4.1,2.7c-1.6,0.6-3.4,0.9-5.4,0.9c-2,0-3.8-0.3-5.4-0.9c-1.6-0.6-3-1.5-4.1-2.7c-1.1-1.1-2-2.5-2.6-4.2
					c-0.6-1.6-0.9-3.4-0.9-5.5C179.4,397,179.7,395.2,180.4,393.5z M186.6,402c0.2,1,0.5,1.8,1,2.6c0.5,0.8,1.1,1.4,1.9,1.8
					c0.8,0.5,1.8,0.7,2.9,0.7c1.2,0,2.2-0.2,3-0.7c0.8-0.5,1.4-1.1,1.9-1.8c0.5-0.8,0.8-1.6,1-2.6c0.2-1,0.3-1.9,0.3-2.9
					c0-1-0.1-2-0.3-3c-0.2-1-0.5-1.8-1-2.6c-0.5-0.7-1.1-1.4-1.9-1.8c-0.8-0.5-1.8-0.7-3-0.7c-1.2,0-2.1,0.2-2.9,0.7
					c-0.8,0.5-1.4,1.1-1.9,1.8c-0.5,0.7-0.8,1.6-1,2.6c-0.2,1-0.3,2-0.3,3C186.4,400,186.5,401,186.6,402z"/>
				<path class="st3" d="M216.3,404.1v7.5h-7.7v-7.5H216.3z"/>
				<path class="st3" d="M237.5,411.6v-3.5h-0.1c-0.9,1.5-2,2.5-3.4,3.2c-1.4,0.7-2.8,1-4.3,1c-1.9,0-3.4-0.2-4.6-0.7
					c-1.2-0.5-2.1-1.2-2.8-2.1c-0.7-0.9-1.2-2-1.4-3.3c-0.3-1.3-0.4-2.7-0.4-4.3v-15.5h6.9v14.2c0,2.1,0.3,3.6,1,4.7
					c0.7,1,1.8,1.5,3.5,1.5c1.9,0,3.2-0.6,4.1-1.7c0.9-1.1,1.3-3,1.3-5.5v-13.2h6.9v25.2H237.5z"/>
				<path class="st3" d="M254.3,376.8v18.7l8.7-9.1h8.2l-9.5,9.3l10.6,15.9h-8.4l-6.9-11.3l-2.7,2.6v8.7h-6.9v-34.8H254.3z"/>
			</g>
		</g>
	</g>
</g>
<g>
</g>
<g>
</g>
<g>
</g>
<g>
</g>
<g>
</g>
<g>
</g>
</svg>
